WorkSans-Black.ufo
<glyph name="ampersand" format="2">
  <advance width="662"/>
  <unicode hex="0026"/>
  <outline>
    <contour>
      <point x="494" y="101" type="curve"/>
      <point x="577" y="146"/>
      <point x="619" y="225"/>
      <point x="624" y="329" type="curve"/>
      <point x="478" y="329" type="line"/>
      <point x="478" y="254"/>
      <point x="458" y="212"/>
      <point x="430" y="171" type="curve"/>
      <point x="386" y="150"/>
      <point x="341" y="133"/>
      <point x="287" y="133" type="curve" smooth="yes"/>
      <point x="232" y="133"/>
      <point x="203" y="156"/>
      <point x="203" y="191" type="curve" smooth="yes"/>
      <point x="203" y="232"/>
      <point x="217" y="252"/>
      <point x="289" y="300" type="curve"/>
      <point x="443" y="317"/>
      <point x="525" y="397"/>
      <point x="525" y="500" type="curve" smooth="yes"/>
      <point x="525" y="579"/>
      <point x="467" y="670"/>
      <point x="299" y="670" type="curve" smooth="yes"/>
      <point x="137" y="670"/>
      <point x="67" y="577"/>
      <point x="67" y="487" type="curve" smooth="yes"/>
      <point x="67" y="397"/>
      <point x="95" y="355"/>
      <point x="307" y="156" type="curve" smooth="yes"/>
      <point x="463" y="9"/>
      <point x="512" y="-10"/>
      <point x="640" y="-10" type="curve"/>
      <point x="652" y="149" type="line"/>
      <point x="565" y="132"/>
      <point x="530" y="174"/>
      <point x="409" y="292" type="curve" smooth="yes"/>
      <point x="283" y="415"/>
      <point x="259" y="442"/>
      <point x="259" y="477" type="curve" smooth="yes"/>
      <point x="259" y="512"/>
      <point x="278" y="529"/>
      <point x="305" y="529" type="curve" smooth="yes"/>
      <point x="330" y="529"/>
      <point x="348" y="513"/>
      <point x="348" y="486" type="curve" smooth="yes"/>
      <point x="348" y="446"/>
      <point x="334" y="416"/>
      <point x="242" y="358" type="curve"/>
      <point x="48" y="358"/>
      <point x="9" y="242"/>
      <point x="10" y="175" type="curve" smooth="yes"/>
      <point x="11" y="46"/>
      <point x="114" y="-10"/>
      <point x="257" y="-10" type="curve" smooth="yes"/>
      <point x="373" y="-10"/>
      <point x="455" y="33"/>
    </contour>
  </outline>
</glyph>
<glyph name="quotesingle" format="2">
  <advance width="260"/>
  <unicode hex="0027"/>
  <outline>
    <contour>
      <point x="50" y="670" type="line"/>
      <point x="50" y="373" type="line"/>
      <point x="197" y="373" type="line"/>
      <point x="229" y="670" type="line"/>
    </contour>
  </outline>
</glyph>
<glyph name="plus" format="2">
  <advance width="604"/>
  <unicode hex="002B"/>
  <outline>
    <contour>
      <point x="215" y="606" type="line"/>
      <point x="215" y="55" type="line"/>
      <point x="390" y="55" type="line"/>
      <point x="390" y="606" type="line"/>
    </contour>
    <contour>
      <point x="45" y="407" type="line"/>
      <point x="45" y="254" type="line"/>
      <point x="559" y="254" type="line"/>
      <point x="559" y="407" type="line"/>
    </contour>
  </outline>
</glyph>
<glyph name="comma" format="2">
  <advance width="306"/>
  <unicode hex="002C"/>
  <outline>
    <contour>
      <point x="25" y="95" type="curve" smooth="yes"/>
      <point x="25" y="27"/>
      <point x="77" y="-4"/>
      <point x="127" y="-4" type="curve" smooth="yes"/>
      <point x="140" y="-4"/>
      <point x="150" y="0"/>
      <point x="159" y="10" type="curve"/>
      <point x="164" y="6" type="line"/>
      <point x="141" y="-46"/>
      <point x="88" y="-77"/>
      <point x="22" y="-104" type="curve"/>
      <point x="119" y="-166" type="line"/>
      <point x="223" y="-124"/>
      <point x="278" y="-40"/>
      <point x="278" y="57" type="curve" smooth="yes"/>
      <point x="278" y="138"/>
      <point x="239" y="206"/>
      <point x="148" y="206" type="curve" smooth="yes"/>
      <point x="74" y="206"/>
      <point x="25" y="172"/>
    </contour>
  </outline>
</glyph>
<glyph name="two" format="2">
  <advance width="605"/>
  <unicode hex="0032"/>
  <outline>
    <contour>
      <point x="579" y="0" type="line"/>
      <point x="579" y="169" type="line"/>
      <point x="476" y="169" type="line" smooth="yes"/>
      <point x="419" y="169"/>
      <point x="360" y="167"/>
      <point x="319" y="163" type="curve"/>
      <point x="319" y="165" type="line"/>
      <point x="461" y="232"/>
      <point x="575" y="323"/>
      <point x="575" y="455" type="curve" smooth="yes"/>
      <point x="575" y="545"/>
      <point x="509" y="670"/>
      <point x="308" y="670" type="curve" smooth="yes"/>
      <point x="151" y="670"/>
      <point x="24" y="593"/>
      <point x="29" y="426" type="curve"/>
      <point x="228" y="378" type="line"/>
      <point x="225" y="459"/>
      <point x="247" y="495"/>
      <point x="292" y="495" type="curve" smooth="yes"/>
      <point x="332" y="495"/>
      <point x="346" y="467"/>
      <point x="346" y="435" type="curve" smooth="yes"/>
      <point x="346" y="358"/>
      <point x="252" y="246"/>
      <point x="51" y="140" type="curve"/>
      <point x="51" y="0" type="line"/>
    </contour>
  </outline>
</glyph>
<glyph name="four" format="2">
  <advance width="670"/>
  <unicode hex="0034"/>
  <outline>
    <contour>
      <point x="565" y="277" type="line"/>
      <point x="565" y="660" type="line"/>
      <point x="296" y="660" type="line"/>
      <point x="26" y="222" type="line"/>
      <point x="26" y="126" type="line"/>
      <point x="365" y="126" type="line"/>
      <point x="365" y="0" type="line"/>
      <point x="565" y="0" type="line"/>
      <point x="565" y="126" type="line"/>
      <point x="654" y="126" type="line"/>
      <point x="654" y="277" type="line"/>
    </contour>
    <contour>
      <point x="366" y="515" type="curve"/>
      <point x="368" y="515" type="line"/>
      <point x="365" y="405" type="line"/>
      <point x="365" y="277" type="line"/>
      <point x="236" y="277" type="line"/>
      <point x="314" y="408" type="line" smooth="yes"/>
      <point x="335" y="443"/>
      <point x="353" y="479"/>
    </contour>
  </outline>
</glyph>
<glyph name="five" format="2">
  <advance width="583"/>
  <unicode hex="0035"/>
  <outline>
    <contour>
      <point x="230" y="386" type="curve"/>
      <point x="229" y="386" type="line"/>
      <point x="230" y="390"/>
      <point x="233" y="400"/>
      <point x="236" y="421" type="curve" smooth="yes"/>
      <point x="245" y="489" type="line"/>
      <point x="521" y="489" type="line"/>
      <point x="521" y="660" type="line"/>
      <point x="82" y="660" type="line"/>
      <point x="38" y="289" type="line"/>
      <point x="208" y="257" type="line"/>
      <point x="225" y="272"/>
      <point x="252" y="280"/>
      <point x="285" y="280" type="curve" smooth="yes"/>
      <point x="337" y="280"/>
      <point x="359" y="256"/>
      <point x="359" y="220" type="curve" smooth="yes"/>
      <point x="359" y="175"/>
      <point x="330" y="156"/>
      <point x="288" y="156" type="curve" smooth="yes"/>
      <point x="231" y="156"/>
      <point x="214" y="180"/>
      <point x="208" y="225" type="curve"/>
      <point x="8" y="109" type="line"/>
      <point x="79" y="12"/>
      <point x="172" y="-10"/>
      <point x="285" y="-10" type="curve" smooth="yes"/>
      <point x="425" y="-10"/>
      <point x="562" y="58"/>
      <point x="562" y="236" type="curve" smooth="yes"/>
      <point x="562" y="345"/>
      <point x="489" y="428"/>
      <point x="356" y="428" type="curve" smooth="yes"/>
      <point x="304" y="428"/>
      <point x="254" y="415"/>
    </contour>
  </outline>
</glyph>
<glyph name="six" format="2">
  <advance width="615"/>
  <unicode hex="0036"/>
  <outline>
    <contour>
      <point x="36" y="330" type="curve" smooth="yes"/>
      <point x="36" y="91"/>
      <point x="141" y="-10"/>
      <point x="324" y="-10" type="curve" smooth="yes"/>
      <point x="500" y="-10"/>
      <point x="596" y="75"/>
      <point x="596" y="207" type="curve" smooth="yes"/>
      <point x="596" y="328"/>
      <point x="504" y="406"/>
      <point x="388" y="406" type="curve" smooth="yes"/>
      <point x="307" y="406"/>
      <point x="265" y="381"/>
      <point x="242" y="342" type="curve"/>
      <point x="241" y="342" type="line"/>
      <point x="241" y="348"/>
      <point x="241" y="351"/>
      <point x="241" y="357" type="curve" smooth="yes"/>
      <point x="241" y="453"/>
      <point x="281" y="493"/>
      <point x="333" y="493" type="curve" smooth="yes"/>
      <point x="372" y="493"/>
      <point x="396" y="471"/>
      <point x="405" y="432" type="curve"/>
      <point x="590" y="519" type="line"/>
      <point x="557" y="632"/>
      <point x="454" y="670"/>
      <point x="347" y="670" type="curve" smooth="yes"/>
      <point x="169" y="670"/>
      <point x="36" y="573"/>
    </contour>
    <contour>
      <point x="391" y="209" type="curve" smooth="yes"/>
      <point x="391" y="173"/>
      <point x="369" y="153"/>
      <point x="330" y="153" type="curve" smooth="yes"/>
      <point x="291" y="153"/>
      <point x="269" y="173"/>
      <point x="269" y="209" type="curve" smooth="yes"/>
      <point x="269" y="245"/>
      <point x="291" y="265"/>
      <point x="330" y="265" type="curve" smooth="yes"/>
      <point x="369" y="265"/>
      <point x="391" y="245"/>
    </contour>
  </outline>
</glyph>
<glyph name="E" format="2">
  <advance width="626"/>
  <unicode hex="0045"/>
  <anchor x="329" y="0" name="bottomC"/>
  <anchor x="313" y="660" name="top"/>
  <anchor x="611" y="0" name="ogonek"/>
  <anchor x="329" y="0" name="bottom"/>
  <outline>
    <contour>
      <point x="50" y="660" type="line"/>
      <point x="50" y="0" type="line"/>
      <point x="283" y="0" type="line"/>
      <point x="283" y="660" type="line"/>
    </contour>
    <contour>
      <point x="162" y="171" type="line"/>
      <point x="162" y="0" type="line"/>
      <point x="610" y="0" type="line"/>
      <point x="610" y="171" type="line"/>
    </contour>
    <contour>
      <point x="162" y="407" type="line"/>
      <point x="162" y="249" type="line"/>
      <point x="537" y="249" type="line"/>
      <point x="537" y="407" type="line"/>
    </contour>
    <contour>
      <point x="162" y="660" type="line"/>
      <point x="162" y="489" type="line"/>
      <point x="598" y="489" type="line"/>
      <point x="598" y="660" type="line"/>
    </contour>
  </outline>
</glyph>
<glyph name="J" format="2">
  <advance width="657"/>
  <unicode hex="004A"/>
  <anchor x="335" y="0" name="bottomC"/>
  <anchor x="506" y="660" name="top"/>
  <anchor x="406" y="0" name="ogonek"/>
  <anchor x="326" y="0" name="bottom"/>
  <outline>
    <contour>
      <point x="389" y="660" type="line"/>
      <point x="389" y="289" type="line" smooth="yes"/>
      <point x="389" y="201"/>
      <point x="368" y="165"/>
      <point x="323" y="165" type="curve" smooth="yes"/>
      <point x="268" y="165"/>
      <point x="245" y="204"/>
      <point x="262" y="329" type="curve"/>
      <point x="29" y="290" type="line"/>
      <point x="-2" y="118"/>
      <point x="78" y="-10"/>
      <point x="308" y="-10" type="curve" smooth="yes"/>
      <point x="509" y="-10"/>
      <point x="622" y="93"/>
      <point x="622" y="272" type="curve" smooth="yes"/>
      <point x="622" y="660" type="line"/>
    </contour>
  </outline>
</glyph>
<glyph name="K" format="2">
  <advance width="717"/>
  <unicode hex="004B"/>
  <anchor x="605" y="0" name="bottomC"/>
  <anchor x="359" y="660" name="top"/>
  <anchor x="721" y="0" name="ogonek"/>
  <anchor x="356" y="0" name="bottom"/>
  <outline>
    <contour>
      <point x="455" y="660" type="line"/>
      <point x="170" y="253" type="line"/>
      <point x="224" y="92" type="line"/>
      <point x="369" y="290" type="line"/>
      <point x="379" y="239" type="line"/>
      <point x="703" y="660" type="line"/>
    </contour>
    <contour>
      <point x="50" y="660" type="line"/>
      <point x="50" y="0" type="line"/>
      <point x="283" y="0" type="line"/>
      <point x="283" y="660" type="line"/>
    </contour>
    <contour>
      <point x="296" y="330" type="line"/>
      <point x="460" y="0" type="line"/>
      <point x="721" y="0" type="line"/>
      <point x="467" y="459" type="line"/>
    </contour>
  </outline>
</glyph>
<glyph name="O" format="2">
  <advance width="729"/>
  <unicode hex="004F"/>
  <anchor x="365" y="0" name="bottomC"/>
  <anchor x="365" y="660" name="top"/>
  <anchor x="452" y="0" name="ogonek"/>
  <anchor x="365" y="0" name="bottom"/>
  <outline>
    <contour>
      <point x="29" y="330" type="curve" smooth="yes"/>
      <point x="29" y="114"/>
      <point x="156" y="-10"/>
      <point x="365" y="-10" type="curve" smooth="yes"/>
      <point x="575" y="-10"/>
      <point x="700" y="114"/>
      <point x="700" y="330" type="curve" smooth="yes"/>
      <point x="700" y="546"/>
      <point x="575" y="670"/>
      <point x="365" y="670" type="curve" smooth="yes"/>
      <point x="156" y="670"/>
      <point x="29" y="546"/>
    </contour>
    <contour>
      <point x="462" y="330" type="curve" smooth="yes"/>
      <point x="462" y="215"/>
      <point x="433" y="165"/>
      <point x="365" y="165" type="curve" smooth="yes"/>
      <point x="297" y="165"/>
      <point x="267" y="215"/>
      <point x="267" y="330" type="curve" smooth="yes"/>
      <point x="267" y="445"/>
      <point x="297" y="495"/>
      <point x="365" y="495" type="curve" smooth="yes"/>
      <point x="433" y="495"/>
      <point x="462" y="445"/>
    </contour>
  </outline>
</glyph>
<glyph name="Q" format="2">
  <advance width="729"/>
  <unicode hex="0051"/>
  <anchor x="537" y="-202" name="bottomC"/>
  <anchor x="365" y="660" name="top"/>
  <anchor x="572" y="-202" name="ogonek"/>
  <anchor x="365" y="-210" name="bottom"/>
  <outline>
    <contour>
      <point x="300" y="19" type="line"/>
      <point x="265" y="-99"/>
      <point x="323" y="-210"/>
      <point x="506" y="-210" type="curve" smooth="yes"/>
      <point x="599" y="-210"/>
      <point x="656" y="-190"/>
      <point x="692" y="-160" type="curve"/>
      <point x="640" y="-1" type="line"/>
      <point x="612" y="-26"/>
      <point x="573" y="-40"/>
      <point x="514" y="-40" type="curve" smooth="yes"/>
      <point x="447" y="-40"/>
      <point x="419" y="-23"/>
      <point x="433" y="28" type="curve"/>
    </contour>
    <component base="O"/>
  </outline>
</glyph>
<glyph name="S" format="2">
  <advance width="646"/>
  <unicode hex="0053"/>
  <anchor x="330" y="0" name="bottomC"/>
  <anchor x="331" y="660" name="top"/>
  <anchor x="421" y="0" name="ogonek"/>
  <anchor x="338" y="0" name="bottom"/>
  <outline>
    <contour>
      <point x="28" y="443" type="curve" smooth="yes"/>
      <point x="28" y="280"/>
      <point x="185" y="251"/>
      <point x="292" y="232" type="curve" smooth="yes"/>
      <point x="348" y="222"/>
      <point x="390" y="214"/>
      <point x="390" y="191" type="curve" smooth="yes"/>
      <point x="390" y="174"/>
      <point x="373" y="161"/>
      <point x="317" y="161" type="curve" smooth="yes"/>
      <point x="231" y="161"/>
      <point x="166" y="186"/>
      <point x="110" y="241" type="curve"/>
      <point x="10" y="83" type="line"/>
      <point x="91" y="24"/>
      <point x="167" y="-10"/>
      <point x="334" y="-10" type="curve" smooth="yes"/>
      <point x="496" y="-10"/>
      <point x="629" y="63"/>
      <point x="629" y="203" type="curve" smooth="yes"/>
      <point x="629" y="329"/>
      <point x="551" y="394"/>
      <point x="357" y="429" type="curve" smooth="yes"/>
      <point x="305" y="438"/>
      <point x="267" y="444"/>
      <point x="267" y="461" type="curve" smooth="yes"/>
      <point x="267" y="483"/>
      <point x="297" y="499"/>
      <point x="344" y="499" type="curve" smooth="yes"/>
      <point x="419" y="499"/>
      <point x="478" y="476"/>
      <point x="539" y="420" type="curve"/>
      <point x="641" y="565" type="line"/>
      <point x="548" y="646"/>
      <point x="463" y="670"/>
      <point x="337" y="670" type="curve" smooth="yes"/>
      <point x="138" y="670"/>
      <point x="28" y="578"/>
    </contour>
  </outline>
</glyph>
<glyph name="U" format="2">
  <advance width="708"/>
  <unicode hex="0055"/>
  <anchor x="354" y="0" name="bottomC"/>
  <anchor x="354" y="660" name="top"/>
  <anchor x="491" y="10" name="ogonek"/>
  <anchor x="354" y="0" name="bottom"/>
  <outline>
    <contour>
      <point x="440" y="660" type="line"/>
      <point x="440" y="266" type="line" smooth="yes"/>
      <point x="440" y="199"/>
      <point x="410" y="165"/>
      <point x="354" y="165" type="curve" smooth="yes"/>
      <point x="299" y="165"/>
      <point x="269" y="199"/>
      <point x="269" y="266" type="curve" smooth="yes"/>
      <point x="269" y="660" type="line"/>
      <point x="35" y="660" type="line"/>
      <point x="35" y="284" type="line" smooth="yes"/>
      <point x="35" y="87"/>
      <point x="141" y="-10"/>
      <point x="354" y="-10" type="curve" smooth="yes"/>
      <point x="567" y="-10"/>
      <point x="673" y="87"/>
      <point x="673" y="284" type="curve" smooth="yes"/>
      <point x="673" y="660" type="line"/>
    </contour>
  </outline>
</glyph>
<glyph name="o" format="2">
  <advance width="598"/>
  <unicode hex="006F"/>
  <anchor x="299" y="0" name="bottomC"/>
  <anchor x="299" y="500" name="top"/>
  <anchor x="422" y="10" name="ogonek"/>
  <anchor x="299" y="0" name="bottom"/>
  <outline>
    <contour>
      <point x="20" y="250" type="curve" smooth="yes"/>
      <point x="20" y="85"/>
      <point x="122" y="-10"/>
      <point x="299" y="-10" type="curve" smooth="yes"/>
      <point x="476" y="-10"/>
      <point x="578" y="85"/>
      <point x="578" y="250" type="curve" smooth="yes"/>
      <point x="578" y="415"/>
      <point x="476" y="510"/>
      <point x="299" y="510" type="curve" smooth="yes"/>
      <point x="122" y="510"/>
      <point x="20" y="415"/>
    </contour>
    <contour>
      <point x="347" y="250" type="curve" smooth="yes"/>
      <point x="347" y="166"/>
      <point x="337" y="145"/>
      <point x="299" y="145" type="curve" smooth="yes"/>
      <point x="261" y="145"/>
      <point x="251" y="166"/>
      <point x="251" y="250" type="curve" smooth="yes"/>
      <point x="251" y="334"/>
      <point x="261" y="355"/>
      <point x="299" y="355" type="curve" smooth="yes"/>
      <point x="337" y="355"/>
      <point x="347" y="334"/>
    </contour>
  </outline>
</glyph>
<glyph name="x" format="2">
  <advance width="627"/>
  <unicode hex="0078"/>
  <anchor x="495" y="0" name="bottomC"/>
  <anchor x="314" y="500" name="top"/>
  <anchor x="638" y="0" name="ogonek"/>
  <anchor x="314" y="0" name="bottom"/>
  <outline>
    <contour>
      <point x="-7" y="500" type="line"/>
      <point x="180" y="228" type="line"/>
      <point x="272" y="235" type="line"/>
      <point x="384" y="0" type="line"/>
      <point x="638" y="0" type="line"/>
      <point x="446" y="278" type="line"/>
      <point x="356" y="265" type="line"/>
      <point x="247" y="500" type="line"/>
    </contour>
    <contour>
      <point x="383" y="500" type="line"/>
      <point x="271" y="265" type="line"/>
      <point x="178" y="278" type="line"/>
      <point x="-11" y="0" type="line"/>
      <point x="240" y="0" type="line"/>
      <point x="349" y="235" type="line"/>
      <point x="450" y="228" type="line"/>
      <point x="634" y="500" type="line"/>
    </contour>
  </outline>
</glyph>
<glyph name="ordfeminine" format="2">
  <advance width="476"/>
  <unicode hex="00AA"/>
  <outline>
    <contour>
      <point x="167" y="510" type="line"/>
      <point x="168" y="545"/>
      <point x="185" y="554"/>
      <point x="205" y="554" type="curve" smooth="yes"/>
      <point x="226" y="554"/>
      <point x="237" y="541"/>
      <point x="237" y="519" type="curve" smooth="yes"/>
      <point x="237" y="379" type="line"/>
      <point x="260" y="382" type="line"/>
      <point x="260" y="322"/>
      <point x="303" y="292"/>
      <point x="365" y="292" type="curve" smooth="yes"/>
      <point x="395" y="292"/>
      <point x="414" y="297"/>
      <point x="431" y="306" type="curve"/>
      <point x="444" y="389" type="line"/>
      <point x="440" y="387"/>
      <point x="434" y="386"/>
      <point x="426" y="386" type="curve" smooth="yes"/>
      <point x="410" y="386"/>
      <point x="401" y="396"/>
      <point x="401" y="416" type="curve" smooth="yes"/>
      <point x="401" y="513" type="line" smooth="yes"/>
      <point x="401" y="611"/>
      <point x="343" y="660"/>
      <point x="214" y="660" type="curve" smooth="yes"/>
      <point x="97" y="660"/>
      <point x="37" y="611"/>
      <point x="30" y="531" type="curve"/>
    </contour>
    <contour>
      <point x="435" y="117" type="line"/>
      <point x="435" y="230" type="line"/>
      <point x="39" y="230" type="line"/>
      <point x="39" y="117" type="line"/>
    </contour>
    <contour>
      <point x="282" y="416" type="curve"/>
      <point x="237" y="416" type="line"/>
      <point x="237" y="392"/>
      <point x="224" y="381"/>
      <point x="206" y="381" type="curve" smooth="yes"/>
      <point x="193" y="381"/>
      <point x="181" y="389"/>
      <point x="181" y="406" type="curve" smooth="yes"/>
      <point x="181" y="423"/>
      <point x="193" y="437"/>
      <point x="213" y="443" type="curve" smooth="yes"/>
      <point x="273" y="460" type="line"/>
      <point x="260" y="512" type="line"/>
      <point x="166" y="491" type="line" smooth="yes"/>
      <point x="64" y="469"/>
      <point x="26" y="436"/>
      <point x="26" y="376" type="curve" smooth="yes"/>
      <point x="26" y="322"/>
      <point x="61" y="292"/>
      <point x="136" y="292" type="curve" smooth="yes"/>
      <point x="239" y="292"/>
      <point x="282" y="352"/>
    </contour>
  </outline>
</glyph>
<glyph name="twosuperior" format="2">
  <advance width="410"/>
  <unicode hex="00B2"/>
  <anchor x="206" y="518" name="_indexring"/>
  <outline>
    <contour>
      <point x="392" y="333" type="line"/>
      <point x="392" y="457" type="line"/>
      <point x="341" y="457" type="line" smooth="yes"/>
      <point x="299" y="457"/>
      <point x="258" y="455"/>
      <point x="231" y="452" type="curve"/>
      <point x="231" y="454" type="line"/>
      <point x="266" y="464"/>
      <point x="299" y="478"/>
      <point x="325" y="495" type="curve" smooth="yes"/>
      <point x="365" y="521"/>
      <point x="390" y="557"/>
      <point x="390" y="603" type="curve" smooth="yes"/>
      <point x="390" y="664"/>
      <point x="343" y="735"/>
      <point x="198" y="735" type="curve" smooth="yes"/>
      <point x="81" y="735"/>
      <point x="7" y="684"/>
      <point x="7" y="589" type="curve"/>
      <point x="163" y="551" type="line"/>
      <point x="161" y="594"/>
      <point x="171" y="616"/>
      <point x="196" y="616" type="curve" smooth="yes"/>
      <point x="214" y="616"/>
      <point x="222" y="606"/>
      <point x="222" y="589" type="curve" smooth="yes"/>
      <point x="222" y="559"/>
      <point x="186" y="516"/>
      <point x="109" y="472" type="curve" smooth="yes"/>
      <point x="84" y="458"/>
      <point x="55" y="444"/>
      <point x="22" y="430" type="curve"/>
      <point x="22" y="333" type="line"/>
    </contour>
  </outline>
</glyph>
<glyph name="Aring" format="2">
  <advance width="689"/>
  <unicode hex="00C5"/>
  <anchor x="574" y="0" name="bottomC"/>
  <anchor x="345" y="857" name="top"/>
  <anchor x="699" y="0" name="ogonek"/>
  <anchor x="344" y="0" name="bottom"/>
  <outline>
    <contour>
      <point x="179" y="730" type="curve" smooth="yes"/>
      <point x="179" y="647"/>
      <point x="239" y="606"/>
      <point x="345" y="606" type="curve" smooth="yes"/>
      <point x="441" y="606"/>
      <point x="511" y="647"/>
      <point x="511" y="730" type="curve" smooth="yes"/>
      <point x="511" y="812"/>
      <point x="451" y="867"/>
      <point x="345" y="867" type="curve" smooth="yes"/>
      <point x="239" y="867"/>
      <point x="179" y="812"/>
    </contour>
    <contour>
      <point x="395" y="721" type="curve" smooth="yes"/>
      <point x="395" y="691"/>
      <point x="377" y="674"/>
      <point x="345" y="674" type="curve" smooth="yes"/>
      <point x="313" y="674"/>
      <point x="295" y="691"/>
      <point x="295" y="721" type="curve" smooth="yes"/>
      <point x="295" y="751"/>
      <point x="313" y="768"/>
      <point x="345" y="768" type="curve" smooth="yes"/>
      <point x="377" y="768"/>
      <point x="395" y="751"/>
    </contour>
    <contour>
      <point x="222" y="0" type="line"/>
      <point x="315" y="379" type="line"/>
      <point x="340" y="491" type="line"/>
      <point x="345" y="491" type="line"/>
      <point x="371" y="379" type="line"/>
      <point x="461" y="0" type="line"/>
      <point x="699" y="0" type="line"/>
      <point x="474" y="660" type="line"/>
      <point x="214" y="660" type="line"/>
      <point x="-10" y="0" type="line"/>
    </contour>
    <contour>
      <point x="534" y="126" type="line"/>
      <point x="534" y="271" type="line"/>
      <point x="157" y="271" type="line"/>
      <point x="157" y="126" type="line"/>
    </contour>
  </outline>
</glyph>
<glyph name="AE" format="2">
  <advance width="904"/>
  <unicode hex="00C6"/>
  <anchor x="526" y="0" name="bottomC"/>
  <anchor x="508" y="660" name="top"/>
  <anchor x="888" y="0" name="ogonek"/>
  <anchor x="508" y="0" name="bottom"/>
  <outline>
    <contour>
      <point x="204" y="660" type="line"/>
      <point x="-10" y="0" type="line"/>
      <point x="220" y="0" type="line"/>
      <point x="383" y="660" type="line"/>
    </contour>
    <contour>
      <point x="153" y="321" type="line"/>
      <point x="103" y="185" type="line"/>
      <point x="501" y="185" type="line"/>
      <point x="501" y="321" type="line"/>
    </contour>
    <contour>
      <point x="489" y="161" type="line"/>
      <point x="489" y="0" type="line"/>
      <point x="888" y="0" type="line"/>
      <point x="888" y="161" type="line"/>
    </contour>
    <contour>
      <point x="401" y="660" type="line"/>
      <point x="401" y="0" type="line"/>
      <point x="615" y="0" type="line"/>
      <point x="615" y="660" type="line"/>
    </contour>
    <contour>
      <point x="489" y="403" type="line"/>
      <point x="489" y="254" type="line"/>
      <point x="815" y="254" type="line"/>
      <point x="815" y="403" type="line"/>
    </contour>
    <contour>
      <point x="268" y="660" type="line"/>
      <point x="228" y="507" type="line"/>
      <point x="477" y="507" type="line"/>
      <point x="526" y="499" type="line"/>
      <point x="876" y="499" type="line"/>
      <point x="876" y="660" type="line"/>
    </contour>
  </outline>
</glyph>
<glyph name="ae" format="2">
  <advance width="873"/>
  <unicode hex="00E6"/>
  <anchor x="612" y="0" name="bottomC"/>
  <anchor x="420" y="500" name="top"/>
  <anchor x="718" y="10" name="ogonek"/>
  <anchor x="420" y="0" name="bottom"/>
  <outline>
    <contour>
      <point x="844" y="136" type="curve"/>
      <point x="659" y="186" type="line"/>
      <point x="652" y="159"/>
      <point x="643" y="143"/>
      <point x="609" y="143" type="curve" smooth="yes"/>
      <point x="561" y="143"/>
      <point x="528" y="159"/>
      <point x="528" y="246" type="curve" smooth="yes"/>
      <point x="528" y="332"/>
      <point x="545" y="358"/>
      <point x="588" y="358" type="curve" smooth="yes"/>
      <point x="631" y="358"/>
      <point x="639" y="320"/>
      <point x="639" y="248" type="curve"/>
      <point x="748" y="285" type="line"/>
      <point x="458" y="285" type="line"/>
      <point x="458" y="206" type="line"/>
      <point x="848" y="206" type="line"/>
      <point x="851" y="219"/>
      <point x="853" y="244"/>
      <point x="853" y="266" type="curve" smooth="yes"/>
      <point x="853" y="412"/>
      <point x="763" y="510"/>
      <point x="597" y="510" type="curve" smooth="yes"/>
      <point x="460" y="510"/>
      <point x="371" y="416"/>
      <point x="371" y="250" type="curve" smooth="yes"/>
      <point x="371" y="84"/>
      <point x="448" y="-10"/>
      <point x="599" y="-10" type="curve" smooth="yes"/>
      <point x="721" y="-10"/>
      <point x="821" y="37"/>
    </contour>
    <contour>
      <point x="440" y="179" type="curve"/>
      <point x="311" y="161" type="line"/>
      <point x="311" y="118"/>
      <point x="286" y="106"/>
      <point x="264" y="106" type="curve" smooth="yes"/>
      <point x="239" y="106"/>
      <point x="227" y="122"/>
      <point x="227" y="146" type="curve" smooth="yes"/>
      <point x="227" y="176"/>
      <point x="243" y="190"/>
      <point x="278" y="199" type="curve" smooth="yes"/>
      <point x="361" y="220" type="line"/>
      <point x="343" y="294" type="line"/>
      <point x="202" y="264" type="line" smooth="yes"/>
      <point x="69" y="236"/>
      <point x="16" y="198"/>
      <point x="16" y="107" type="curve" smooth="yes"/>
      <point x="16" y="39"/>
      <point x="62" y="-10"/>
      <point x="179" y="-10" type="curve" smooth="yes"/>
      <point x="361" y="-10"/>
      <point x="440" y="84"/>
    </contour>
    <contour>
      <point x="499" y="148" type="line"/>
      <point x="499" y="304" type="line" smooth="yes"/>
      <point x="499" y="431"/>
      <point x="399" y="510"/>
      <point x="257" y="510" type="curve" smooth="yes"/>
      <point x="100" y="510"/>
      <point x="31" y="436"/>
      <point x="22" y="330" type="curve"/>
      <point x="212" y="300" type="line"/>
      <point x="216" y="348"/>
      <point x="231" y="362"/>
      <point x="265" y="362" type="curve" smooth="yes"/>
      <point x="297" y="362"/>
      <point x="311" y="345"/>
      <point x="311" y="312" type="curve" smooth="yes"/>
      <point x="311" y="112" type="line"/>
    </contour>
  </outline>
</glyph>
<glyph name="idieresis" format="2">
  <advance width="308"/>
  <unicode hex="00EF"/>
  <anchor x="154" y="500" name="top"/>
  <anchor x="250" y="10" name="ogonek"/>
  <anchor x="154" y="0" name="bottom"/>
  <anchor x="154" y="0" name="bottomC"/>
  <outline>
    <contour>
      <point x="357" y="629" type="curve" smooth="yes"/>
      <point x="357" y="692"/>
      <point x="325" y="723"/>
      <point x="261" y="723" type="curve" smooth="yes"/>
      <point x="197" y="723"/>
      <point x="165" y="692"/>
      <point x="165" y="629" type="curve" smooth="yes"/>
      <point x="165" y="566"/>
      <point x="197" y="535"/>
      <point x="261" y="535" type="curve" smooth="yes"/>
      <point x="325" y="535"/>
      <point x="357" y="566"/>
    </contour>
    <contour>
      <point x="143" y="629" type="curve" smooth="yes"/>
      <point x="143" y="692"/>
      <point x="111" y="723"/>
      <point x="47" y="723" type="curve" smooth="yes"/>
      <point x="-17" y="723"/>
      <point x="-49" y="692"/>
      <point x="-49" y="629" type="curve" smooth="yes"/>
      <point x="-49" y="566"/>
      <point x="-17" y="535"/>
      <point x="47" y="535" type="curve" smooth="yes"/>
      <point x="111" y="535"/>
      <point x="143" y="566"/>
    </contour>
    <component base="idotless"/>
  </outline>
</glyph>
<glyph name="ring" format="2">
  <advance width="500"/>
  <unicode hex="02DA"/>
  <anchor x="250" y="500" name="_top"/>
  <outline>
    <contour>
      <point x="112" y="658" type="curve" smooth="yes"/>
      <point x="112" y="580"/>
      <point x="163" y="535"/>
      <point x="253" y="535" type="curve" smooth="yes"/>
      <point x="343" y="535"/>
      <point x="394" y="580"/>
      <point x="394" y="658" type="curve" smooth="yes"/>
      <point x="394" y="736"/>
      <point x="343" y="781"/>
      <point x="253" y="781" type="curve" smooth="yes"/>
      <point x="163" y="781"/>
      <point x="112" y="736"/>
    </contour>
    <contour>
      <point x="293" y="658" type="curve" smooth="yes"/>
      <point x="293" y="633"/>
      <point x="278" y="619"/>
      <point x="253" y="619" type="curve" smooth="yes"/>
      <point x="228" y="619"/>
      <point x="213" y="633"/>
      <point x="213" y="658" type="curve" smooth="yes"/>
      <point x="213" y="683"/>
      <point x="228" y="697"/>
      <point x="253" y="697" type="curve" smooth="yes"/>
      <point x="278" y="697"/>
      <point x="293" y="683"/>
    </contour>
  </outline>
</glyph>
<glyph name="ogonek" format="2">
  <advance width="550"/>
  <unicode hex="02DB"/>
  <anchor x="371" y="10" name="_ogonek"/>
  <outline>
    <contour>
      <point x="289" y="32" type="line"/>
      <point x="187" y="26"/>
      <point x="114" y="-17"/>
      <point x="114" y="-96" type="curve" smooth="yes"/>
      <point x="114" y="-180"/>
      <point x="183" y="-215"/>
      <point x="266" y="-215" type="curve" smooth="yes"/>
      <point x="316" y="-215"/>
      <point x="352" y="-209"/>
      <point x="384" y="-189" type="curve"/>
      <point x="357" y="-86" type="line"/>
      <point x="347" y="-92"/>
      <point x="332" y="-94"/>
      <point x="317" y="-94" type="curve" smooth="yes"/>
      <point x="286" y="-94"/>
      <point x="268" y="-80"/>
      <point x="268" y="-56" type="curve" smooth="yes"/>
      <point x="268" y="-25"/>
      <point x="296" y="-5"/>
      <point x="371" y="10" type="curve"/>
    </contour>
  </outline>
</glyph>
<glyph name="hungarumlaut" format="2">
  <advance width="500"/>
  <unicode hex="02DD"/>
  <anchor x="250" y="500" name="_top"/>
  <outline>
    <contour>
      <point x="348" y="730" type="line"/>
      <point x="283" y="553" type="line"/>
      <point x="436" y="553" type="line"/>
      <point x="529" y="730" type="line"/>
    </contour>
    <contour>
      <point x="112" y="730" type="line"/>
      <point x="47" y="553" type="line"/>
      <point x="200" y="553" type="line"/>
      <point x="293" y="730" type="line"/>
    </contour>
  </outline>
</glyph>
<glyph name="perthousand" format="2">
  <advance width="1430"/>
  <unicode hex="2030"/>
  <outline>
    <contour>
      <point x="998" y="182" type="curve" smooth="yes"/>
      <point x="998" y="66"/>
      <point x="1080" y="-10"/>
      <point x="1202" y="-10" type="curve" smooth="yes"/>
      <point x="1324" y="-10"/>
      <point x="1406" y="66"/>
      <point x="1406" y="182" type="curve" smooth="yes"/>
      <point x="1406" y="298"/>
      <point x="1324" y="374"/>
      <point x="1202" y="374" type="curve" smooth="yes"/>
      <point x="1080" y="374"/>
      <point x="998" y="298"/>
    </contour>
    <contour>
      <point x="1243" y="182" type="curve" smooth="yes"/>
      <point x="1243" y="154"/>
      <point x="1228" y="138"/>
      <point x="1202" y="138" type="curve" smooth="yes"/>
      <point x="1176" y="138"/>
      <point x="1161" y="154"/>
      <point x="1161" y="182" type="curve" smooth="yes"/>
      <point x="1161" y="210"/>
      <point x="1176" y="226"/>
      <point x="1202" y="226" type="curve" smooth="yes"/>
      <point x="1228" y="226"/>
      <point x="1243" y="210"/>
    </contour>
    <component base="percent"/>
  </outline>
</glyph>
<glyph name="fraction" format="2">
  <advance width="273"/>
  <unicode hex="2044"/>
  <outline>
    <contour>
      <point x="-28" y="0" type="line"/>
      <point x="448" y="661" type="line"/>
      <point x="301" y="661" type="line"/>
      <point x="-175" y="0" type="line"/>
    </contour>
  </outline>
</glyph>
<glyph name="sixsuperior" format="2">
  <advance width="417"/>
  <unicode hex="2076"/>
  <anchor x="219" y="533" name="_indexring"/>
  <outline>
    <contour>
      <point x="403" y="455" type="curve" smooth="yes"/>
      <point x="403" y="543"/>
      <point x="342" y="571"/>
      <point x="274" y="571" type="curve" smooth="yes"/>
      <point x="224" y="571"/>
      <point x="191" y="560"/>
      <point x="171" y="539" type="curve"/>
      <point x="170" y="539" type="line"/>
      <point x="170" y="542"/>
      <point x="170" y="545"/>
      <point x="170" y="549" type="curve" smooth="yes"/>
      <point x="170" y="600"/>
      <point x="196" y="628"/>
      <point x="232" y="628" type="curve" smooth="yes"/>
      <point x="258" y="628"/>
      <point x="276" y="614"/>
      <point x="281" y="590" type="curve"/>
      <point x="401" y="646" type="line"/>
      <point x="369" y="715"/>
      <point x="308" y="735"/>
      <point x="228" y="735" type="curve" smooth="yes"/>
      <point x="110" y="735"/>
      <point x="22" y="671"/>
      <point x="22" y="531" type="curve" smooth="yes"/>
      <point x="22" y="390"/>
      <point x="93" y="327"/>
      <point x="216" y="327" type="curve" smooth="yes"/>
      <point x="339" y="327"/>
      <point x="403" y="374"/>
    </contour>
    <contour>
      <point x="186" y="461" type="curve" smooth="yes"/>
      <point x="186" y="481"/>
      <point x="198" y="491"/>
      <point x="221" y="491" type="curve" smooth="yes"/>
      <point x="244" y="491"/>
      <point x="255" y="481"/>
      <point x="255" y="461" type="curve" smooth="yes"/>
      <point x="255" y="441"/>
      <point x="243" y="431"/>
      <point x="220" y="431" type="curve" smooth="yes"/>
      <point x="197" y="431"/>
      <point x="186" y="441"/>
    </contour>
  </outline>
</glyph>
<glyph name="sevensuperior" format="2">
  <advance width="383"/>
  <unicode hex="2077"/>
  <anchor x="191" y="544" name="_indexring"/>
  <outline>
    <contour>
      <point x="262" y="333" type="line"/>
      <point x="262" y="437"/>
      <point x="281" y="553"/>
      <point x="374" y="636" type="curve"/>
      <point x="374" y="730" type="line"/>
      <point x="14" y="730" type="line"/>
      <point x="14" y="606" type="line"/>
      <point x="324" y="606" type="line"/>
      <point x="275" y="667" type="line"/>
      <point x="168" y="596"/>
      <point x="101" y="460"/>
      <point x="101" y="333" type="curve"/>
    </contour>
  </outline>
</glyph>
<glyph name="eightsuperior" format="2">
  <advance width="438"/>
  <unicode hex="2078"/>
  <anchor x="218" y="529" name="_indexring"/>
  <outline>
    <contour>
      <point x="36" y="615" type="curve" smooth="yes"/>
      <point x="36" y="575"/>
      <point x="59" y="542"/>
      <point x="104" y="530" type="curve"/>
      <point x="104" y="529" type="line"/>
      <point x="52" y="516"/>
      <point x="28" y="486"/>
      <point x="28" y="444" type="curve" smooth="yes"/>
      <point x="28" y="369"/>
      <point x="99" y="327"/>
      <point x="218" y="327" type="curve" smooth="yes"/>
      <point x="339" y="327"/>
      <point x="410" y="369"/>
      <point x="410" y="444" type="curve" smooth="yes"/>
      <point x="410" y="488"/>
      <point x="384" y="516"/>
      <point x="331" y="529" type="curve"/>
      <point x="331" y="530" type="line"/>
      <point x="380" y="544"/>
      <point x="402" y="576"/>
      <point x="402" y="615" type="curve" smooth="yes"/>
      <point x="402" y="688"/>
      <point x="332" y="735"/>
      <point x="218" y="735" type="curve" smooth="yes"/>
      <point x="106" y="735"/>
      <point x="36" y="688"/>
    </contour>
    <contour>
      <point x="255" y="610" type="curve" smooth="yes"/>
      <point x="255" y="590"/>
      <point x="243" y="580"/>
      <point x="219" y="580" type="curve" smooth="yes"/>
      <point x="195" y="580"/>
      <point x="183" y="590"/>
      <point x="183" y="610" type="curve" smooth="yes"/>
      <point x="183" y="630"/>
      <point x="195" y="640"/>
      <point x="219" y="640" type="curve" smooth="yes"/>
      <point x="243" y="640"/>
      <point x="255" y="630"/>
    </contour>
    <contour>
      <point x="183" y="452" type="curve" smooth="yes"/>
      <point x="183" y="472"/>
      <point x="195" y="482"/>
      <point x="219" y="482" type="curve" smooth="yes"/>
      <point x="243" y="482"/>
      <point x="255" y="472"/>
      <point x="255" y="452" type="curve" smooth="yes"/>
      <point x="255" y="432"/>
      <point x="243" y="422"/>
      <point x="219" y="422" type="curve" smooth="yes"/>
      <point x="195" y="422"/>
      <point x="183" y="432"/>
    </contour>
  </outline>
</glyph>
<glyph name="ninesuperior" format="2">
  <advance width="422"/>
  <unicode hex="2079"/>
  <anchor x="197" y="532" name="_indexring"/>
  <outline>
    <contour>
      <point x="16" y="604" type="curve" smooth="yes"/>
      <point x="16" y="531"/>
      <point x="77" y="479"/>
      <point x="164" y="479" type="curve" smooth="yes"/>
      <point x="206" y="479"/>
      <point x="235" y="491"/>
      <point x="251" y="514" type="curve"/>
      <point x="252" y="514" type="line"/>
      <point x="252" y="510"/>
      <point x="252" y="508"/>
      <point x="252" y="504" type="curve" smooth="yes"/>
      <point x="252" y="459"/>
      <point x="238" y="434"/>
      <point x="203" y="434" type="curve" smooth="yes"/>
      <point x="173" y="434"/>
      <point x="161" y="440"/>
      <point x="159" y="462" type="curve"/>
      <point x="27" y="426" type="line"/>
      <point x="47" y="346"/>
      <point x="111" y="327"/>
      <point x="191" y="327" type="curve" smooth="yes"/>
      <point x="311" y="327"/>
      <point x="400" y="382"/>
      <point x="400" y="531" type="curve" smooth="yes"/>
      <point x="400" y="672"/>
      <point x="328" y="735"/>
      <point x="203" y="735" type="curve" smooth="yes"/>
      <point x="90" y="735"/>
      <point x="16" y="691"/>
    </contour>
    <contour>
      <point x="233" y="601" type="curve" smooth="yes"/>
      <point x="233" y="581"/>
      <point x="222" y="572"/>
      <point x="199" y="572" type="curve" smooth="yes"/>
      <point x="176" y="572"/>
      <point x="165" y="581"/>
      <point x="165" y="601" type="curve" smooth="yes"/>
      <point x="165" y="621"/>
      <point x="176" y="631"/>
      <point x="199" y="631" type="curve" smooth="yes"/>
      <point x="222" y="631"/>
      <point x="233" y="621"/>
    </contour>
  </outline>
</glyph>
<glyph name="minussuperior" format="2">
  <advance width="361"/>
  <unicode hex="207B"/>
  <outline>
    <contour>
      <point x="325" y="472" type="line"/>
      <point x="325" y="592" type="line"/>
      <point x="36" y="592" type="line"/>
      <point x="36" y="472" type="line"/>
    </contour>
  </outline>
</glyph>
<glyph name="uni2206" format="2">
  <advance width="756"/>
  <unicode hex="2206"/>
  <outline>
    <contour>
      <point x="264" y="660" type="line"/>
      <point x="40" y="129" type="line"/>
      <point x="40" y="0" type="line"/>
      <point x="716" y="0" type="line"/>
      <point x="716" y="129" type="line"/>
      <point x="492" y="660" type="line"/>
    </contour>
    <contour>
      <point x="537" y="156" type="line"/>
      <point x="219" y="156" type="line"/>
      <point x="378" y="535" type="line"/>
    </contour>
  </outline>
</glyph>
<glyph name="infinity" format="2">
  <advance width="979"/>
  <unicode hex="221E"/>
  <outline>
    <contour>
      <point x="444" y="344" type="curve" smooth="yes"/>
      <point x="295" y="186"/>
      <point x="266" y="180"/>
      <point x="231" y="180" type="curve" smooth="yes"/>
      <point x="194" y="180"/>
      <point x="170" y="196"/>
      <point x="170" y="244" type="curve" smooth="yes"/>
      <point x="170" y="296"/>
      <point x="197" y="310"/>
      <point x="241" y="310" type="curve" smooth="yes"/>
      <point x="299" y="310"/>
      <point x="333" y="301"/>
      <point x="415" y="217" type="curve" smooth="yes"/>
      <point x="544" y="85"/>
      <point x="620" y="48"/>
      <point x="726" y="48" type="curve" smooth="yes"/>
      <point x="862" y="48"/>
      <point x="961" y="94"/>
      <point x="961" y="295" type="curve" smooth="yes"/>
      <point x="961" y="496"/>
      <point x="858" y="542"/>
      <point x="753" y="542" type="curve" smooth="yes"/>
      <point x="679" y="541"/>
      <point x="620" y="531"/>
    </contour>
    <contour>
      <point x="18" y="295" type="curve" smooth="yes"/>
      <point x="18" y="94"/>
      <point x="119" y="48"/>
      <point x="224" y="48" type="curve" smooth="yes"/>
      <point x="332" y="48"/>
      <point x="370" y="74"/>
      <point x="546" y="259" type="curve" smooth="yes"/>
      <point x="684" y="404"/>
      <point x="718" y="410"/>
      <point x="752" y="410" type="curve" smooth="yes"/>
      <point x="795" y="410"/>
      <point x="809" y="389"/>
      <point x="809" y="346" type="curve" smooth="yes"/>
      <point x="809" y="303"/>
      <point x="793" y="280"/>
      <point x="735" y="280" type="curve" smooth="yes"/>
      <point x="680" y="280"/>
      <point x="638" y="296"/>
      <point x="575" y="364" type="curve" smooth="yes"/>
      <point x="415" y="537"/>
      <point x="318" y="542"/>
      <point x="226" y="542" type="curve" smooth="yes"/>
      <point x="121" y="542"/>
      <point x="18" y="496"/>
    </contour>
  </outline>
</glyph>
<glyph name="whiteDiamond" format="2">
  <advance width="600"/>
  <unicode hex="25C7"/>
  <outline>
    <contour>
      <point x="565" y="259" type="line"/>
      <point x="300" y="524" type="line"/>
      <point x="35" y="259" type="line"/>
      <point x="300" y="-6" type="line"/>
    </contour>
    <contour>
      <point x="193" y="259" type="line"/>
      <point x="300" y="366" type="line"/>
      <point x="407" y="259" type="line"/>
      <point x="300" y="152" type="line"/>
    </contour>
  </outline>
</glyph>
<glyph name="Adieresis.titl" format="2">
  <advance width="689"/>
  <outline>
    <contour>
      <point x="746" y="571" type="curve" smooth="yes"/>
      <point x="746" y="629"/>
      <point x="708" y="662"/>
      <point x="641" y="662" type="curve" smooth="yes"/>
      <point x="576" y="662"/>
      <point x="539" y="629"/>
      <point x="539" y="571" type="curve" smooth="yes"/>
      <point x="539" y="513"/>
      <point x="576" y="480"/>
      <point x="641" y="480" type="curve" smooth="yes"/>
      <point x="708" y="480"/>
      <point x="746" y="513"/>
    </contour>
    <contour>
      <point x="149" y="571" type="curve" smooth="yes"/>
      <point x="149" y="629"/>
      <point x="111" y="662"/>
      <point x="44" y="662" type="curve" smooth="yes"/>
      <point x="-21" y="662"/>
      <point x="-58" y="629"/>
      <point x="-58" y="571" type="curve" smooth="yes"/>
      <point x="-58" y="513"/>
      <point x="-21" y="480"/>
      <point x="44" y="480" type="curve" smooth="yes"/>
      <point x="111" y="480"/>
      <point x="149" y="513"/>
    </contour>
    <contour>
      <point x="222" y="0" type="line"/>
      <point x="315" y="379" type="line"/>
      <point x="341" y="491" type="line"/>
      <point x="344" y="491" type="line"/>
      <point x="371" y="379" type="line"/>
      <point x="461" y="0" type="line"/>
      <point x="699" y="0" type="line"/>
      <point x="484" y="660" type="line"/>
      <point x="204" y="660" type="line"/>
      <point x="-10" y="0" type="line"/>
    </contour>
    <contour>
      <point x="534" y="126" type="line"/>
      <point x="534" y="271" type="line"/>
      <point x="157" y="271" type="line"/>
      <point x="157" y="126" type="line"/>
    </contour>
  </outline>
</glyph>
<glyph name="M.swsh.001" format="2">
  <advance width="1215"/>
  <anchor x="758" y="0" name="bottomC"/>
  <anchor x="741" y="660" name="top"/>
  <anchor x="1165" y="0" name="ogonek"/>
  <anchor x="741" y="0" name="bottom"/>
  <outline>
    <contour>
      <point x="290" y="362" type="line"/>
      <point x="240" y="365"/>
      <point x="214" y="396"/>
      <point x="214" y="432" type="curve" smooth="yes"/>
      <point x="214" y="464"/>
      <point x="230" y="494"/>
      <point x="277" y="494" type="curve" smooth="yes"/>
      <point x="527" y="494" type="line"/>
      <point x="527" y="660" type="line"/>
      <point x="277" y="660" type="line" smooth="yes"/>
      <point x="99" y="660"/>
      <point x="10" y="578"/>
      <point x="10" y="436" type="curve" smooth="yes"/>
      <point x="10" y="299"/>
      <point x="97" y="216"/>
      <point x="227" y="212" type="curve"/>
    </contour>
    <component base="M" xOffset="267"/>
  </outline>
</glyph>
<glyph name="W.swsh" format="2">
  <advance width="1343"/>
  <anchor x="1035" y="0" name="bottomC"/>
  <anchor x="832" y="660" name="top"/>
  <anchor x="1162" y="0" name="ogonek"/>
  <anchor x="832" y="0" name="bottom"/>
  <outline>
    <contour>
      <point x="293" y="362" type="line"/>
      <point x="237" y="365"/>
      <point x="214" y="396"/>
      <point x="214" y="432" type="curve" smooth="yes"/>
      <point x="214" y="464"/>
      <point x="228" y="494"/>
      <point x="282" y="494" type="curve" smooth="yes"/>
      <point x="467" y="494" type="line"/>
      <point x="467" y="660" type="line"/>
      <point x="277" y="660" type="line" smooth="yes"/>
      <point x="99" y="660"/>
      <point x="10" y="578"/>
      <point x="10" y="436" type="curve" smooth="yes"/>
      <point x="10" y="301"/>
      <point x="98" y="212"/>
      <point x="227" y="212" type="curve"/>
    </contour>
    <component base="W" xOffset="322"/>
  </outline>
</glyph>
<glyph name="acutecmb.asc" format="2">
  <anchor x="0" y="700" name="_top"/>
  <outline>
    <contour>
      <point x="-71" y="746" type="line"/>
      <point x="92" y="746" type="line"/>
      <point x="183" y="913" type="line"/>
      <point x="-13" y="913" type="line"/>
    </contour>
  </outline>
</glyph>
<glyph name="ae.sc" format="2">
  <advance width="884"/>
  <anchor x="482" y="560" name="top"/>
  <anchor x="482" y="0" name="bottom"/>
  <outline>
    <contour>
      <point x="188" y="560" type="line"/>
      <point x="-4" y="0" type="line"/>
      <point x="209" y="0" type="line"/>
      <point x="365" y="560" type="line"/>
    </contour>
    <contour>
      <point x="182" y="286" type="line"/>
      <point x="115" y="142" type="line"/>
      <point x="495" y="142" type="line"/>
      <point x="495" y="286" type="line"/>
    </contour>
    <contour>
      <point x="485" y="149" type="line"/>
      <point x="485" y="0" type="line"/>
      <point x="859" y="0" type="line"/>
      <point x="859" y="149" type="line"/>
    </contour>
    <contour>
      <point x="378" y="560" type="line"/>
      <point x="378" y="0" type="line"/>
      <point x="586" y="0" type="line"/>
      <point x="586" y="560" type="line"/>
    </contour>
    <contour>
      <point x="485" y="349" type="line"/>
      <point x="485" y="205" type="line"/>
      <point x="780" y="205" type="line"/>
      <point x="780" y="349" type="line"/>
    </contour>
    <contour>
      <point x="271" y="560" type="line"/>
      <point x="226" y="416" type="line"/>
      <point x="474" y="416" type="line"/>
      <point x="522" y="411" type="line"/>
      <point x="848" y="411" type="line"/>
      <point x="848" y="560" type="line"/>
    </contour>
  </outline>
</glyph>
<glyph name="ampersand.sc" format="2">
  <advance width="594"/>
  <outline>
    <contour>
      <point x="600" y="126" type="line"/>
      <point x="531" y="126"/>
      <point x="479" y="137"/>
      <point x="371" y="243" type="curve" smooth="yes"/>
      <point x="268" y="345"/>
      <point x="247" y="369"/>
      <point x="247" y="403" type="curve" smooth="yes"/>
      <point x="247" y="425"/>
      <point x="255" y="438"/>
      <point x="275" y="438" type="curve" smooth="yes"/>
      <point x="292" y="438"/>
      <point x="301" y="429"/>
      <point x="301" y="403" type="curve" smooth="yes"/>
      <point x="301" y="366"/>
      <point x="286" y="349"/>
      <point x="228" y="305" type="curve"/>
      <point x="36" y="284"/>
      <point x="7" y="210"/>
      <point x="7" y="141" type="curve" smooth="yes"/>
      <point x="7" y="45"/>
      <point x="77" y="-7"/>
      <point x="244" y="-7" type="curve" smooth="yes"/>
      <point x="343" y="-7"/>
      <point x="408" y="18"/>
      <point x="449" y="81" type="curve"/>
      <point x="503" y="107"/>
      <point x="556" y="146"/>
      <point x="556" y="271" type="curve"/>
      <point x="430" y="271" type="line"/>
      <point x="433" y="199"/>
      <point x="419" y="174"/>
      <point x="389" y="150" type="curve"/>
      <point x="351" y="135"/>
      <point x="317" y="122"/>
      <point x="264" y="122" type="curve" smooth="yes"/>
      <point x="225" y="122"/>
      <point x="195" y="139"/>
      <point x="195" y="169" type="curve" smooth="yes"/>
      <point x="195" y="192"/>
      <point x="212" y="214"/>
      <point x="274" y="242" type="curve"/>
      <point x="422" y="285"/>
      <point x="459" y="342"/>
      <point x="459" y="424" type="curve" smooth="yes"/>
      <point x="459" y="507"/>
      <point x="399" y="568"/>
      <point x="270" y="568" type="curve" smooth="yes"/>
      <point x="120" y="568"/>
      <point x="60" y="486"/>
      <point x="60" y="411" type="curve" smooth="yes"/>
      <point x="60" y="333"/>
      <point x="105" y="285"/>
      <point x="299" y="122" type="curve" smooth="yes"/>
      <point x="433" y="10"/>
      <point x="481" y="-8"/>
      <point x="576" y="-8" type="curve"/>
    </contour>
  </outline>
</glyph>
<glyph name="blackSmallSquare.case" format="2">
  <advance width="820"/>
  <outline>
    <contour>
      <point x="80" y="0" type="line"/>
      <point x="740" y="0" type="line"/>
      <point x="740" y="660" type="line"/>
      <point x="80" y="660" type="line"/>
    </contour>
  </outline>
</glyph>
<glyph name="braceleft.case" format="2">
  <advance width="466"/>
  <outline>
    <contour>
      <point x="162" y="579" type="curve" smooth="yes"/>
      <point x="162" y="502" type="line" smooth="yes"/>
      <point x="162" y="427"/>
      <point x="131" y="398"/>
      <point x="50" y="398" type="curve"/>
      <point x="50" y="308" type="line"/>
      <point x="233" y="308"/>
      <point x="339" y="330"/>
      <point x="339" y="447" type="curve" smooth="yes"/>
      <point x="339" y="542" type="line" smooth="yes"/>
      <point x="339" y="613"/>
      <point x="374" y="642"/>
      <point x="453" y="642" type="curve"/>
      <point x="453" y="779" type="line"/>
      <point x="243" y="779"/>
      <point x="162" y="731"/>
    </contour>
    <contour>
      <point x="50" y="261" type="line"/>
      <point x="131" y="261"/>
      <point x="162" y="232"/>
      <point x="162" y="157" type="curve" smooth="yes"/>
      <point x="162" y="81" type="line" smooth="yes"/>
      <point x="162" y="-72"/>
      <point x="243" y="-120"/>
      <point x="453" y="-120" type="curve"/>
      <point x="453" y="17" type="line"/>
      <point x="374" y="17"/>
      <point x="339" y="46"/>
      <point x="339" y="118" type="curve" smooth="yes"/>
      <point x="339" y="212" type="line" smooth="yes"/>
      <point x="339" y="329"/>
      <point x="233" y="351"/>
      <point x="50" y="351" type="curve"/>
    </contour>
  </outline>
</glyph>
<glyph name="bracketleft.case" format="2">
  <advance width="420"/>
  <outline>
    <contour>
      <point x="84" y="752" type="line"/>
      <point x="84" y="-97" type="line"/>
      <point x="279" y="-97" type="line"/>
      <point x="279" y="752" type="line"/>
    </contour>
    <contour>
      <point x="180" y="54" type="line"/>
      <point x="180" y="-97" type="line"/>
      <point x="399" y="-97" type="line"/>
      <point x="399" y="54" type="line"/>
    </contour>
    <contour>
      <point x="180" y="752" type="line"/>
      <point x="180" y="601" type="line"/>
      <point x="399" y="601" type="line"/>
      <point x="399" y="752" type="line"/>
    </contour>
  </outline>
</glyph>
<glyph name="commasuperior" format="2">
  <advance width="254"/>
  <outline>
    <contour>
      <point x="32" y="405" type="curve" smooth="yes"/>
      <point x="32" y="353"/>
      <point x="78" y="327"/>
      <point x="111" y="327" type="curve" smooth="yes"/>
      <point x="120" y="327"/>
      <point x="125" y="329"/>
      <point x="132" y="333" type="curve"/>
      <point x="136" y="330" type="line"/>
      <point x="121" y="296"/>
      <point x="80" y="271"/>
      <point x="29" y="250" type="curve"/>
      <point x="103" y="203" type="line"/>
      <point x="183" y="235"/>
      <point x="225" y="299"/>
      <point x="225" y="373" type="curve" smooth="yes"/>
      <point x="225" y="443"/>
      <point x="195" y="487"/>
      <point x="125" y="487" type="curve" smooth="yes"/>
      <point x="64" y="487"/>
      <point x="32" y="459"/>
    </contour>
  </outline>
</glyph>
<glyph name="d.sc" format="2">
  <advance width="668"/>
  <anchor x="312" y="0" name="bottomC"/>
  <anchor x="305" y="560" name="top"/>
  <anchor x="338" y="0" name="ogonek"/>
  <anchor x="83" y="58" name="center"/>
  <anchor x="305" y="0" name="bottom"/>
  <outline>
    <contour>
      <point x="204" y="560" type="line"/>
      <point x="204" y="395" type="line"/>
      <point x="334" y="395" type="line" smooth="yes"/>
      <point x="387" y="395"/>
      <point x="400" y="357"/>
      <point x="400" y="280" type="curve" smooth="yes"/>
      <point x="400" y="203"/>
      <point x="387" y="165"/>
      <point x="334" y="165" type="curve" smooth="yes"/>
      <point x="205" y="165" type="line"/>
      <point x="205" y="0" type="line"/>
      <point x="338" y="0" type="line" smooth="yes"/>
      <point x="527" y="0"/>
      <point x="631" y="104"/>
      <point x="631" y="280" type="curve" smooth="yes"/>
      <point x="631" y="456"/>
      <point x="527" y="560"/>
      <point x="338" y="560" type="curve" smooth="yes"/>
    </contour>
    <contour>
      <point x="53" y="560" type="line"/>
      <point x="53" y="0" type="line"/>
      <point x="278" y="0" type="line"/>
      <point x="278" y="560" type="line"/>
    </contour>
  </outline>
</glyph>
<glyph name="daggerdblsuperior" format="2">
  <advance width="530"/>
  <outline>
    <contour>
      <point x="36" y="608" type="line"/>
      <point x="36" y="494" type="line"/>
      <point x="494" y="494" type="line"/>
      <point x="494" y="608" type="line"/>
    </contour>
    <contour>
      <point x="345" y="730" type="line"/>
      <point x="185" y="730" type="line"/>
      <point x="185" y="185" type="line"/>
      <point x="345" y="185" type="line"/>
    </contour>
    <contour>
      <point x="494" y="421" type="line"/>
      <point x="36" y="421" type="line"/>
      <point x="36" y="307" type="line"/>
      <point x="494" y="307" type="line"/>
    </contour>
  </outline>
</glyph>
<glyph name="daggersuperior" format="2">
  <advance width="530"/>
  <outline>
    <contour>
      <point x="185" y="730" type="line"/>
      <point x="185" y="185" type="line"/>
      <point x="345" y="185" type="line"/>
      <point x="345" y="730" type="line"/>
    </contour>
    <contour>
      <point x="36" y="578" type="line"/>
      <point x="36" y="444" type="line"/>
      <point x="494" y="444" type="line"/>
      <point x="494" y="578" type="line"/>
    </contour>
  </outline>
</glyph>
<glyph name="eight.sc" format="2">
  <advance width="584"/>
  <outline>
    <contour>
      <point x="556" y="152" type="curve" smooth="yes"/>
      <point x="556" y="205"/>
      <point x="528" y="251"/>
      <point x="454" y="282" type="curve"/>
      <point x="454" y="284" type="line"/>
      <point x="521" y="311"/>
      <point x="547" y="352"/>
      <point x="547" y="397" type="curve" smooth="yes"/>
      <point x="547" y="506"/>
      <point x="449" y="568"/>
      <point x="292" y="568" type="curve" smooth="yes"/>
      <point x="135" y="568"/>
      <point x="37" y="506"/>
      <point x="37" y="397" type="curve" smooth="yes"/>
      <point x="37" y="352"/>
      <point x="63" y="311"/>
      <point x="130" y="284" type="curve"/>
      <point x="130" y="282" type="line"/>
      <point x="56" y="251"/>
      <point x="28" y="205"/>
      <point x="28" y="152" type="curve" smooth="yes"/>
      <point x="28" y="54"/>
      <point x="125" y="-8"/>
      <point x="292" y="-8" type="curve" smooth="yes"/>
      <point x="459" y="-8"/>
      <point x="556" y="54"/>
    </contour>
    <contour>
      <point x="243" y="178" type="curve" smooth="yes"/>
      <point x="243" y="204"/>
      <point x="261" y="219"/>
      <point x="292" y="219" type="curve" smooth="yes"/>
      <point x="323" y="219"/>
      <point x="341" y="204"/>
      <point x="341" y="178" type="curve" smooth="yes"/>
      <point x="341" y="152"/>
      <point x="323" y="137"/>
      <point x="292" y="137" type="curve" smooth="yes"/>
      <point x="261" y="137"/>
      <point x="243" y="152"/>
    </contour>
    <contour>
      <point x="244" y="381" type="curve" smooth="yes"/>
      <point x="244" y="407"/>
      <point x="262" y="422"/>
      <point x="292" y="422" type="curve" smooth="yes"/>
      <point x="322" y="422"/>
      <point x="340" y="407"/>
      <point x="340" y="381" type="curve" smooth="yes"/>
      <point x="340" y="355"/>
      <point x="322" y="340"/>
      <point x="292" y="340" type="curve" smooth="yes"/>
      <point x="262" y="340"/>
      <point x="244" y="355"/>
    </contour>
  </outline>
</glyph>
<glyph name="f_t.liga" format="2">
  <advance width="810"/>
  <anchor x="521" y="250" name="center"/>
  <anchor x="732" y="767" name="topright"/>
  <anchor x="616" y="0" name="bottom"/>
  <outline>
    <contour>
      <point x="70" y="520" type="curve" smooth="yes"/>
      <point x="70" y="0" type="line"/>
      <point x="300" y="0" type="line"/>
      <point x="300" y="421" type="line"/>
      <point x="284" y="450" type="line"/>
      <point x="284" y="508" type="line" smooth="yes"/>
      <point x="284" y="555"/>
      <point x="314" y="570"/>
      <point x="345" y="570" type="curve" smooth="yes"/>
      <point x="369" y="570"/>
      <point x="380" y="566"/>
      <point x="393" y="558" type="curve"/>
      <point x="399" y="690" type="line"/>
      <point x="376" y="707"/>
      <point x="338" y="721"/>
      <point x="282" y="721" type="curve" smooth="yes"/>
      <point x="181" y="721"/>
      <point x="70" y="672"/>
    </contour>
    <contour>
      <point x="3" y="500" type="line"/>
      <point x="3" y="345" type="line"/>
      <point x="426" y="345" type="line"/>
      <point x="426" y="500" type="line"/>
    </contour>
    <contour>
      <point x="443" y="606" type="line"/>
      <point x="443" y="168" type="line" smooth="yes"/>
      <point x="443" y="38"/>
      <point x="517" y="-10"/>
      <point x="657" y="-10" type="curve" smooth="yes"/>
      <point x="707" y="-10"/>
      <point x="772" y="3"/>
      <point x="806" y="24" type="curve"/>
      <point x="796" y="154" type="line"/>
      <point x="778" y="145"/>
      <point x="760" y="141"/>
      <point x="733" y="141" type="curve" smooth="yes"/>
      <point x="692" y="141"/>
      <point x="673" y="158"/>
      <point x="673" y="204" type="curve" smooth="yes"/>
      <point x="673" y="670" type="line"/>
    </contour>
    <contour>
      <point x="366" y="500" type="line"/>
      <point x="366" y="345" type="line"/>
      <point x="799" y="345" type="line"/>
      <point x="799" y="500" type="line"/>
    </contour>
  </outline>
</glyph>
<glyph name="five.sc" format="2">
  <advance width="567"/>
  <outline>
    <contour>
      <point x="234" y="314" type="curve"/>
      <point x="232" y="315" type="line"/>
      <point x="238" y="329"/>
      <point x="241" y="341"/>
      <point x="243" y="354" type="curve" smooth="yes"/>
      <point x="250" y="407" type="line"/>
      <point x="510" y="407" type="line"/>
      <point x="510" y="560" type="line"/>
      <point x="88" y="560" type="line"/>
      <point x="51" y="233" type="line"/>
      <point x="217" y="210" type="line"/>
      <point x="232" y="227"/>
      <point x="247" y="234"/>
      <point x="276" y="234" type="curve" smooth="yes"/>
      <point x="308" y="234"/>
      <point x="334" y="223"/>
      <point x="334" y="194" type="curve" smooth="yes"/>
      <point x="334" y="170"/>
      <point x="317" y="150"/>
      <point x="282" y="150" type="curve" smooth="yes"/>
      <point x="239" y="150"/>
      <point x="226" y="163"/>
      <point x="211" y="186" type="curve"/>
      <point x="31" y="96" type="line"/>
      <point x="83" y="17"/>
      <point x="175" y="-8"/>
      <point x="290" y="-8" type="curve" smooth="yes"/>
      <point x="446" y="-8"/>
      <point x="532" y="72"/>
      <point x="532" y="195" type="curve" smooth="yes"/>
      <point x="532" y="295"/>
      <point x="464" y="359"/>
      <point x="367" y="359" type="curve" smooth="yes"/>
      <point x="292" y="359"/>
      <point x="255" y="339"/>
    </contour>
  </outline>
</glyph>
<glyph name="g.sc" format="2">
  <advance width="639"/>
  <anchor x="315" y="0" name="bottomC"/>
  <anchor x="337" y="560" name="top"/>
  <anchor x="353" y="0" name="ogonek"/>
  <anchor x="334" y="0" name="bottom"/>
  <outline>
    <contour>
      <point x="26" y="280" type="curve" smooth="yes"/>
      <point x="26" y="94"/>
      <point x="137" y="-8"/>
      <point x="296" y="-8" type="curve" smooth="yes"/>
      <point x="455" y="-8"/>
      <point x="482" y="141"/>
      <point x="482" y="213" type="curve"/>
      <point x="419" y="201" type="line"/>
      <point x="418" y="172"/>
      <point x="398" y="147"/>
      <point x="355" y="147" type="curve" smooth="yes"/>
      <point x="285" y="147"/>
      <point x="254" y="188"/>
      <point x="254" y="280" type="curve" smooth="yes"/>
      <point x="254" y="367"/>
      <point x="289" y="406"/>
      <point x="343" y="406" type="curve" smooth="yes"/>
      <point x="373" y="406"/>
      <point x="399" y="395"/>
      <point x="409" y="341" type="curve"/>
      <point x="605" y="388" type="line"/>
      <point x="580" y="502"/>
      <point x="475" y="568"/>
      <point x="335" y="568" type="curve" smooth="yes"/>
      <point x="140" y="568"/>
      <point x="26" y="466"/>
    </contour>
    <contour>
      <point x="333" y="201" type="line"/>
      <point x="419" y="201" type="line"/>
      <point x="419" y="161" type="line"/>
      <point x="450" y="118" type="line"/>
      <point x="460" y="0" type="line"/>
      <point x="599" y="0" type="line"/>
      <point x="599" y="309" type="line"/>
      <point x="333" y="309" type="line"/>
    </contour>
  </outline>
</glyph>
<glyph name="h.sc" format="2">
  <advance width="694"/>
  <anchor x="525" y="0" name="bottomC"/>
  <anchor x="347" y="560" name="top"/>
  <anchor x="641" y="0" name="ogonek"/>
  <anchor x="347" y="0" name="bottom"/>
  <outline>
    <contour>
      <point x="416" y="560" type="line"/>
      <point x="416" y="0" type="line"/>
      <point x="641" y="0" type="line"/>
      <point x="641" y="560" type="line"/>
    </contour>
    <contour>
      <point x="53" y="560" type="line"/>
      <point x="53" y="0" type="line"/>
      <point x="278" y="0" type="line"/>
      <point x="278" y="560" type="line"/>
    </contour>
    <contour>
      <point x="166" y="368" type="line"/>
      <point x="166" y="200" type="line"/>
      <point x="531" y="200" type="line"/>
      <point x="531" y="368" type="line"/>
    </contour>
  </outline>
</glyph>
<glyph name="idieresis.sc" format="2">
  <advance width="336"/>
  <anchor x="168" y="560" name="top"/>
  <anchor x="283" y="0" name="ogonek"/>
  <anchor x="168" y="0" name="bottom"/>
  <anchor x="168" y="0" name="bottomC"/>
  <outline>
    <contour>
      <point x="-45" y="689" type="curve" smooth="yes"/>
      <point x="-45" y="631"/>
      <point x="-9" y="598"/>
      <point x="53" y="598" type="curve" smooth="yes"/>
      <point x="117" y="598"/>
      <point x="155" y="631"/>
      <point x="155" y="689" type="curve" smooth="yes"/>
      <point x="155" y="747"/>
      <point x="117" y="780"/>
      <point x="53" y="780" type="curve" smooth="yes"/>
      <point x="-9" y="780"/>
      <point x="-45" y="747"/>
    </contour>
    <contour>
      <point x="181" y="689" type="curve" smooth="yes"/>
      <point x="181" y="631"/>
      <point x="217" y="598"/>
      <point x="279" y="598" type="curve" smooth="yes"/>
      <point x="343" y="598"/>
      <point x="381" y="631"/>
      <point x="381" y="689" type="curve" smooth="yes"/>
      <point x="381" y="747"/>
      <point x="343" y="780"/>
      <point x="279" y="780" type="curve" smooth="yes"/>
      <point x="217" y="780"/>
      <point x="181" y="747"/>
    </contour>
    <component base="i.sc"/>
  </outline>
</glyph>
<glyph name="j.sc" format="2">
  <advance width="608"/>
  <anchor x="312" y="0" name="bottomC"/>
  <anchor x="452" y="560" name="top"/>
  <anchor x="383" y="0" name="ogonek"/>
  <anchor x="299" y="0" name="bottom"/>
  <outline>
    <contour>
      <point x="337" y="560" type="line"/>
      <point x="337" y="242" type="line" smooth="yes"/>
      <point x="337" y="185"/>
      <point x="324" y="162"/>
      <point x="289" y="162" type="curve" smooth="yes"/>
      <point x="254" y="162"/>
      <point x="231" y="185"/>
      <point x="246" y="296" type="curve"/>
      <point x="31" y="261" type="line"/>
      <point x="0" y="108"/>
      <point x="83" y="-8"/>
      <point x="291" y="-8" type="curve" smooth="yes"/>
      <point x="473" y="-8"/>
      <point x="567" y="59"/>
      <point x="567" y="228" type="curve" smooth="yes"/>
      <point x="567" y="560" type="line"/>
    </contour>
  </outline>
</glyph>
<glyph name="l.sc" format="2">
  <advance width="575"/>
  <anchor x="314" y="0" name="bottomC"/>
  <anchor x="167" y="560" name="top"/>
  <anchor x="549" y="0" name="ogonek"/>
  <anchor x="366" y="560" name="topright"/>
  <anchor x="314" y="0" name="bottom"/>
  <outline>
    <contour>
      <point x="53" y="560" type="line"/>
      <point x="53" y="0" type="line"/>
      <point x="283" y="0" type="line"/>
      <point x="283" y="560" type="line"/>
    </contour>
    <contour>
      <point x="168" y="168" type="line"/>
      <point x="168" y="0" type="line"/>
      <point x="549" y="0" type="line"/>
      <point x="549" y="168" type="line"/>
    </contour>
  </outline>
</glyph>
<glyph name="longs.component" format="2">
  <advance width="309"/>
  <anchor x="146" y="0" name="bottomC"/>
  <anchor x="181" y="730" name="top"/>
  <anchor x="261" y="0" name="ogonek"/>
  <anchor x="150" y="0" name="bottom"/>
  <outline>
    <contour>
      <point x="261" y="0" type="line"/>
      <point x="261" y="527" type="line" smooth="yes"/>
      <point x="261" y="556"/>
      <point x="272" y="570"/>
      <point x="292" y="570" type="curve" smooth="yes"/>
      <point x="306" y="570"/>
      <point x="311" y="568"/>
      <point x="317" y="565" type="curve"/>
      <point x="323" y="704" type="line"/>
      <point x="306" y="713"/>
      <point x="277" y="720"/>
      <point x="246" y="720" type="curve" smooth="yes"/>
      <point x="131" y="720"/>
      <point x="39" y="672"/>
      <point x="39" y="520" type="curve" smooth="yes"/>
      <point x="39" y="0" type="line"/>
    </contour>
  </outline>
</glyph>
<glyph name="longs_l" format="2">
  <advance width="710"/>
  <anchor x="680" y="352" name="center"/>
  <anchor x="589" y="0" name="bottomC"/>
  <anchor x="513" y="700" name="top"/>
  <anchor x="543" y="0" name="bottom"/>
  <anchor x="686" y="700" name="topright"/>
  <anchor x="647" y="0" name="ogonek"/>
  <outline>
    <contour>
      <point x="261" y="0" type="line"/>
      <point x="261" y="505" type="line" smooth="yes"/>
      <point x="261" y="552"/>
      <point x="291" y="570"/>
      <point x="330" y="570" type="curve" smooth="yes"/>
      <point x="348" y="570"/>
      <point x="359" y="568"/>
      <point x="371" y="560" type="curve"/>
      <point x="377" y="694" type="line"/>
      <point x="350" y="713"/>
      <point x="318" y="720"/>
      <point x="267" y="720" type="curve" smooth="yes"/>
      <point x="152" y="720"/>
      <point x="39" y="672"/>
      <point x="39" y="520" type="curve" smooth="yes"/>
      <point x="39" y="0" type="line"/>
    </contour>
    <component base="l" xOffset="369"/>
  </outline>
</glyph>
<glyph name="lslash.sc" format="2">
  <advance width="631"/>
  <anchor x="358" y="0" name="bottomC"/>
  <anchor x="211" y="560" name="top"/>
  <anchor x="593" y="0" name="ogonek"/>
  <anchor x="411" y="560" name="topright"/>
  <anchor x="358" y="0" name="bottom"/>
  <outline>
    <contour>
      <point x="2" y="251" type="line"/>
      <point x="2" y="118" type="line"/>
      <point x="473" y="341" type="line"/>
      <point x="473" y="474" type="line"/>
    </contour>
    <component base="l.sc" xOffset="44"/>
  </outline>
</glyph>
<glyph name="n.sc" format="2">
  <advance width="710"/>
  <anchor x="511" y="0" name="bottomC"/>
  <anchor x="360" y="560" name="top"/>
  <anchor x="657" y="0" name="ogonek"/>
  <anchor x="351" y="0" name="bottom"/>
  <outline>
    <contour>
      <point x="448" y="560" type="line"/>
      <point x="448" y="402" type="line"/>
      <point x="455" y="242" type="line"/>
      <point x="452" y="242" type="line"/>
      <point x="411" y="334" type="line"/>
      <point x="300" y="560" type="line"/>
      <point x="53" y="560" type="line"/>
      <point x="53" y="0" type="line"/>
      <point x="262" y="0" type="line"/>
      <point x="262" y="158" type="line"/>
      <point x="255" y="318" type="line"/>
      <point x="258" y="318" type="line"/>
      <point x="298" y="228" type="line"/>
      <point x="410" y="0" type="line"/>
      <point x="657" y="0" type="line"/>
      <point x="657" y="560" type="line"/>
    </contour>
  </outline>
</glyph>
<glyph name="n.swsh" format="2">
  <advance width="670"/>
  <anchor x="570" y="-105" name="bottomC"/>
  <anchor x="309" y="500" name="top"/>
  <anchor x="582" y="-105" name="ogonek"/>
  <anchor x="253" y="0" name="bottom"/>
  <outline>
    <contour>
      <point x="231" y="262" type="curve"/>
      <point x="269" y="262" type="line"/>
      <point x="269" y="316"/>
      <point x="284" y="340"/>
      <point x="317" y="340" type="curve" smooth="yes"/>
      <point x="341" y="340"/>
      <point x="352" y="327"/>
      <point x="352" y="282" type="curve" smooth="yes"/>
      <point x="352" y="42" type="line" smooth="yes"/>
      <point x="352" y="-67"/>
      <point x="433" y="-110"/>
      <point x="532" y="-110" type="curve" smooth="yes"/>
      <point x="589" y="-110"/>
      <point x="615" y="-100"/>
      <point x="660" y="-80" type="curve"/>
      <point x="673" y="50" type="line"/>
      <point x="657" y="42"/>
      <point x="644" y="39"/>
      <point x="623" y="39" type="curve" smooth="yes"/>
      <point x="600" y="39"/>
      <point x="582" y="50"/>
      <point x="582" y="80" type="curve" smooth="yes"/>
      <point x="582" y="342" type="line" smooth="yes"/>
      <point x="582" y="449"/>
      <point x="524" y="510"/>
      <point x="425" y="510" type="curve" smooth="yes"/>
      <point x="299" y="510"/>
      <point x="231" y="418"/>
    </contour>
    <contour>
      <point x="39" y="500" type="line"/>
      <point x="39" y="281" type="line"/>
      <point x="39" y="0" type="line"/>
      <point x="269" y="0" type="line"/>
      <point x="269" y="281" type="line"/>
      <point x="254" y="338" type="line"/>
      <point x="246" y="500" type="line"/>
    </contour>
  </outline>
</glyph>
<glyph name="nine.osf" format="2">
  <advance width="611"/>
  <outline>
    <contour>
      <point x="33" y="349" type="curve" smooth="yes"/>
      <point x="33" y="222"/>
      <point x="124" y="138"/>
      <point x="245" y="138" type="curve" smooth="yes"/>
      <point x="337" y="138"/>
      <point x="367" y="170"/>
      <point x="383" y="202" type="curve"/>
      <point x="386" y="202" type="line"/>
      <point x="386" y="191"/>
      <point x="386" y="185"/>
      <point x="386" y="180" type="curve" smooth="yes"/>
      <point x="386" y="83"/>
      <point x="358" y="44"/>
      <point x="304" y="44" type="curve" smooth="yes"/>
      <point x="255" y="44"/>
      <point x="239" y="66"/>
      <point x="235" y="114" type="curve"/>
      <point x="41" y="49" type="line"/>
      <point x="87" y="-86"/>
      <point x="184" y="-110"/>
      <point x="297" y="-110" type="curve" smooth="yes"/>
      <point x="475" y="-110"/>
      <point x="586" y="8"/>
      <point x="586" y="224" type="curve" smooth="yes"/>
      <point x="586" y="467"/>
      <point x="473" y="570"/>
      <point x="301" y="570" type="curve" smooth="yes"/>
      <point x="137" y="570"/>
      <point x="33" y="486"/>
    </contour>
    <contour>
      <point x="357" y="348" type="curve" smooth="yes"/>
      <point x="357" y="309"/>
      <point x="336" y="288"/>
      <point x="296" y="288" type="curve" smooth="yes"/>
      <point x="256" y="288"/>
      <point x="235" y="309"/>
      <point x="235" y="348" type="curve" smooth="yes"/>
      <point x="235" y="387"/>
      <point x="256" y="408"/>
      <point x="296" y="408" type="curve" smooth="yes"/>
      <point x="336" y="408"/>
      <point x="357" y="387"/>
    </contour>
  </outline>
</glyph>
<glyph name="odieresis.titl.sc" format="2">
  <advance width="660"/>
  <outline>
    <contour>
      <point x="108" y="689" type="curve" smooth="yes"/>
      <point x="108" y="631"/>
      <point x="145" y="598"/>
      <point x="210" y="598" type="curve" smooth="yes"/>
      <point x="277" y="598"/>
      <point x="315" y="631"/>
      <point x="315" y="689" type="curve" smooth="yes"/>
      <point x="315" y="747"/>
      <point x="277" y="780"/>
      <point x="210" y="780" type="curve" smooth="yes"/>
      <point x="145" y="780"/>
      <point x="108" y="747"/>
    </contour>
    <contour>
      <point x="345" y="689" type="curve" smooth="yes"/>
      <point x="345" y="631"/>
      <point x="382" y="598"/>
      <point x="447" y="598" type="curve" smooth="yes"/>
      <point x="514" y="598"/>
      <point x="552" y="631"/>
      <point x="552" y="689" type="curve" smooth="yes"/>
      <point x="552" y="747"/>
      <point x="514" y="780"/>
      <point x="447" y="780" type="curve" smooth="yes"/>
      <point x="382" y="780"/>
      <point x="345" y="747"/>
    </contour>
    <contour>
      <point x="26" y="280" type="curve" smooth="yes"/>
      <point x="26" y="98"/>
      <point x="140" y="-8"/>
      <point x="330" y="-8" type="curve" smooth="yes"/>
      <point x="520" y="-8"/>
      <point x="634" y="98"/>
      <point x="634" y="280" type="curve" smooth="yes"/>
      <point x="634" y="462"/>
      <point x="520" y="568"/>
      <point x="330" y="568" type="curve" smooth="yes"/>
      <point x="140" y="568"/>
      <point x="26" y="462"/>
    </contour>
    <contour>
      <point x="403" y="280" type="curve" smooth="yes"/>
      <point x="403" y="193"/>
      <point x="383" y="162"/>
      <point x="330" y="162" type="curve" smooth="yes"/>
      <point x="277" y="162"/>
      <point x="257" y="193"/>
      <point x="257" y="280" type="curve" smooth="yes"/>
      <point x="257" y="367"/>
      <point x="277" y="398"/>
      <point x="330" y="398" type="curve" smooth="yes"/>
      <point x="383" y="398"/>
      <point x="403" y="367"/>
    </contour>
  </outline>
</glyph>
<glyph name="ogonek.I" format="2">
  <advance width="333"/>
  <anchor x="288" y="0" name="_ogonek"/>
  <outline>
    <contour>
      <point x="196" y="32" type="line"/>
      <point x="94" y="26"/>
      <point x="21" y="-17"/>
      <point x="21" y="-96" type="curve" smooth="yes"/>
      <point x="21" y="-180"/>
      <point x="90" y="-215"/>
      <point x="173" y="-215" type="curve" smooth="yes"/>
      <point x="223" y="-215"/>
      <point x="259" y="-209"/>
      <point x="291" y="-189" type="curve"/>
      <point x="264" y="-86" type="line"/>
      <point x="254" y="-92"/>
      <point x="239" y="-94"/>
      <point x="224" y="-94" type="curve" smooth="yes"/>
      <point x="193" y="-94"/>
      <point x="175" y="-80"/>
      <point x="175" y="-56" type="curve" smooth="yes"/>
      <point x="175" y="-25"/>
      <point x="203" y="-5"/>
      <point x="288" y="0" type="curve"/>
    </contour>
  </outline>
</glyph>
<glyph name="q.sc" format="2">
  <advance width="660"/>
  <anchor x="502" y="-175" name="bottomC"/>
  <anchor x="330" y="560" name="top"/>
  <anchor x="516" y="-175" name="ogonek"/>
  <anchor x="330" y="-210" name="bottom"/>
  <outline>
    <contour>
      <point x="282" y="34" type="line"/>
      <point x="251" y="-110"/>
      <point x="327" y="-176"/>
      <point x="471" y="-179" type="curve" smooth="yes"/>
      <point x="537" y="-180"/>
      <point x="586" y="-158"/>
      <point x="622" y="-130" type="curve"/>
      <point x="570" y="13" type="line"/>
      <point x="546" y="-18"/>
      <point x="522" y="-27"/>
      <point x="473" y="-27" type="curve" smooth="yes"/>
      <point x="407" y="-27"/>
      <point x="377" y="-6"/>
      <point x="384" y="34" type="curve"/>
    </contour>
    <component base="o.sc"/>
  </outline>
</glyph>
<glyph name="r.sc.ss03" format="2">
  <advance width="650"/>
  <anchor x="512" y="0" name="bottomC"/>
  <anchor x="316" y="560" name="top"/>
  <anchor x="628" y="0" name="ogonek"/>
  <anchor x="328" y="0" name="bottom"/>
  <outline>
    <contour>
      <point x="278" y="0" type="line"/>
      <point x="278" y="172" type="line"/>
      <point x="306" y="172" type="line" smooth="yes"/>
      <point x="329" y="172"/>
      <point x="351" y="167"/>
      <point x="362" y="129" type="curve" smooth="yes"/>
      <point x="373" y="92"/>
      <point x="371" y="41"/>
      <point x="386" y="0" type="curve"/>
      <point x="628" y="0" type="line"/>
      <point x="628" y="5" type="line"/>
      <point x="606" y="45"/>
      <point x="602" y="95"/>
      <point x="588" y="150" type="curve" smooth="yes"/>
      <point x="581" y="181"/>
      <point x="554" y="215"/>
      <point x="498" y="229" type="curve"/>
      <point x="498" y="232" type="line"/>
      <point x="567" y="242"/>
      <point x="619" y="294"/>
      <point x="619" y="382" type="curve" smooth="yes"/>
      <point x="619" y="492"/>
      <point x="529" y="560"/>
      <point x="371" y="560" type="curve" smooth="yes"/>
      <point x="53" y="560" type="line"/>
      <point x="53" y="0" type="line"/>
    </contour>
    <contour>
      <point x="278" y="410" type="line"/>
      <point x="333" y="410" type="line" smooth="yes"/>
      <point x="374" y="410"/>
      <point x="395" y="391"/>
      <point x="395" y="356" type="curve" smooth="yes"/>
      <point x="395" y="321"/>
      <point x="374" y="302"/>
      <point x="333" y="302" type="curve" smooth="yes"/>
      <point x="278" y="302" type="line"/>
    </contour>
  </outline>
</glyph>
<glyph name="registeredsuperior" format="2">
  <advance width="607"/>
  <outline>
    <contour>
      <point x="587" y="392" type="curve" smooth="yes"/>
      <point x="587" y="561"/>
      <point x="476" y="670"/>
      <point x="304" y="670" type="curve" smooth="yes"/>
      <point x="131" y="670"/>
      <point x="20" y="561"/>
      <point x="20" y="392" type="curve" smooth="yes"/>
      <point x="20" y="223"/>
      <point x="131" y="113"/>
      <point x="304" y="113" type="curve" smooth="yes"/>
      <point x="476" y="113"/>
      <point x="587" y="223"/>
    </contour>
    <contour>
      <point x="278" y="243" type="line"/>
      <point x="278" y="547" type="line"/>
      <point x="198" y="547" type="line"/>
      <point x="198" y="243" type="line"/>
    </contour>
    <contour>
      <point x="438" y="243" type="line"/>
      <point x="350" y="381" type="line"/>
      <point x="295" y="347" type="line"/>
      <point x="351" y="243" type="line"/>
    </contour>
    <contour>
      <point x="103" y="392" type="curve" smooth="yes"/>
      <point x="103" y="514"/>
      <point x="183" y="595"/>
      <point x="304" y="595" type="curve" smooth="yes"/>
      <point x="424" y="595"/>
      <point x="504" y="514"/>
      <point x="504" y="392" type="curve" smooth="yes"/>
      <point x="504" y="269"/>
      <point x="424" y="188"/>
      <point x="304" y="188" type="curve" smooth="yes"/>
      <point x="183" y="188"/>
      <point x="103" y="269"/>
    </contour>
    <contour>
      <point x="321" y="334" type="line" smooth="yes"/>
      <point x="392" y="334"/>
      <point x="434" y="371"/>
      <point x="434" y="436" type="curve" smooth="yes"/>
      <point x="434" y="502"/>
      <point x="382" y="547"/>
      <point x="309" y="547" type="curve" smooth="yes"/>
      <point x="245" y="547" type="line"/>
      <point x="245" y="479" type="line"/>
      <point x="306" y="479" type="line" smooth="yes"/>
      <point x="337" y="479"/>
      <point x="351" y="465"/>
      <point x="351" y="437" type="curve" smooth="yes"/>
      <point x="351" y="409"/>
      <point x="337" y="397"/>
      <point x="306" y="397" type="curve" smooth="yes"/>
      <point x="245" y="397" type="line"/>
      <point x="245" y="334" type="line"/>
    </contour>
  </outline>
</glyph>
<glyph name="seven.osf" format="2">
  <advance width="630"/>
  <outline>
    <contour>
      <point x="23" y="390" type="line"/>
      <point x="500" y="390" type="line"/>
      <point x="474" y="466" type="line"/>
      <point x="261" y="300"/>
      <point x="173" y="117"/>
      <point x="173" y="-100" type="curve"/>
      <point x="401" y="-100" type="line"/>
      <point x="401" y="79"/>
      <point x="452" y="260"/>
      <point x="605" y="406" type="curve"/>
      <point x="605" y="560" type="line"/>
      <point x="23" y="560" type="line"/>
    </contour>
  </outline>
</glyph>
<glyph name="six.osf" format="2">
  <advance width="595"/>
  <outline>
    <contour>
      <point x="26" y="330" type="curve" smooth="yes"/>
      <point x="26" y="95"/>
      <point x="136" y="-10"/>
      <point x="314" y="-10" type="curve" smooth="yes"/>
      <point x="478" y="-10"/>
      <point x="579" y="67"/>
      <point x="579" y="207" type="curve" smooth="yes"/>
      <point x="579" y="334"/>
      <point x="488" y="406"/>
      <point x="376" y="406" type="curve" smooth="yes"/>
      <point x="315" y="406"/>
      <point x="257" y="382"/>
      <point x="233" y="342" type="curve"/>
      <point x="231" y="342" type="line"/>
      <point x="231" y="345"/>
      <point x="231" y="347"/>
      <point x="231" y="350" type="curve" smooth="yes"/>
      <point x="231" y="476"/>
      <point x="274" y="505"/>
      <point x="327" y="505" type="curve" smooth="yes"/>
      <point x="364" y="505"/>
      <point x="381" y="480"/>
      <point x="388" y="438" type="curve"/>
      <point x="572" y="505" type="line"/>
      <point x="546" y="630"/>
      <point x="444" y="670"/>
      <point x="330" y="670" type="curve" smooth="yes"/>
      <point x="150" y="670"/>
      <point x="26" y="563"/>
    </contour>
    <contour>
      <point x="379" y="204" type="curve" smooth="yes"/>
      <point x="379" y="165"/>
      <point x="358" y="144"/>
      <point x="318" y="144" type="curve" smooth="yes"/>
      <point x="278" y="144"/>
      <point x="257" y="165"/>
      <point x="257" y="204" type="curve" smooth="yes"/>
      <point x="257" y="243"/>
      <point x="278" y="264"/>
      <point x="318" y="264" type="curve" smooth="yes"/>
      <point x="358" y="264"/>
      <point x="379" y="243"/>
    </contour>
  </outline>
</glyph>
<glyph name="three.osf" format="2">
  <advance width="577"/>
  <outline>
    <contour>
      <point x="19" y="379" type="curve"/>
      <point x="210" y="320" type="line"/>
      <point x="210" y="395"/>
      <point x="235" y="416"/>
      <point x="275" y="416" type="curve" smooth="yes"/>
      <point x="311" y="416"/>
      <point x="328" y="391"/>
      <point x="328" y="352" type="curve" smooth="yes"/>
      <point x="328" y="307"/>
      <point x="305" y="284"/>
      <point x="267" y="284" type="curve" smooth="yes"/>
      <point x="235" y="284" type="line"/>
      <point x="235" y="161" type="line"/>
      <point x="280" y="161" type="line" smooth="yes"/>
      <point x="319" y="161"/>
      <point x="340" y="148"/>
      <point x="340" y="106" type="curve" smooth="yes"/>
      <point x="340" y="65"/>
      <point x="313" y="44"/>
      <point x="280" y="44" type="curve" smooth="yes"/>
      <point x="239" y="44"/>
      <point x="204" y="68"/>
      <point x="207" y="137" type="curve"/>
      <point x="10" y="58" type="line"/>
      <point x="44" y="-66"/>
      <point x="135" y="-110"/>
      <point x="292" y="-110" type="curve" smooth="yes"/>
      <point x="436" y="-110"/>
      <point x="548" y="-43"/>
      <point x="548" y="86" type="curve" smooth="yes"/>
      <point x="548" y="209"/>
      <point x="445" y="228"/>
      <point x="428" y="228" type="curve"/>
      <point x="428" y="232" type="line"/>
      <point x="445" y="232"/>
      <point x="536" y="258"/>
      <point x="536" y="376" type="curve" smooth="yes"/>
      <point x="536" y="502"/>
      <point x="442" y="570"/>
      <point x="291" y="570" type="curve" smooth="yes"/>
      <point x="145" y="570"/>
      <point x="35" y="526"/>
    </contour>
  </outline>
</glyph>
<glyph name="two.sc" format="2">
  <advance width="585"/>
  <outline>
    <contour>
      <point x="26" y="357" type="curve"/>
      <point x="223" y="312" type="line"/>
      <point x="222" y="367"/>
      <point x="240" y="398"/>
      <point x="281" y="398" type="curve" smooth="yes"/>
      <point x="310" y="398"/>
      <point x="326" y="380"/>
      <point x="326" y="350" type="curve" smooth="yes"/>
      <point x="326" y="298"/>
      <point x="281" y="240"/>
      <point x="47" y="130" type="curve"/>
      <point x="47" y="0" type="line"/>
      <point x="548" y="0" type="line"/>
      <point x="548" y="160" type="line"/>
      <point x="446" y="160" type="line" smooth="yes"/>
      <point x="416" y="160"/>
      <point x="363" y="159"/>
      <point x="333" y="156" type="curve"/>
      <point x="333" y="159" type="line"/>
      <point x="427" y="186"/>
      <point x="545" y="240"/>
      <point x="545" y="389" type="curve" smooth="yes"/>
      <point x="545" y="469"/>
      <point x="482" y="568"/>
      <point x="294" y="568" type="curve" smooth="yes"/>
      <point x="91" y="568"/>
      <point x="23" y="460"/>
    </contour>
  </outline>
</glyph>
<glyph name="udieresis.titl.sc" format="2">
  <advance width="663"/>
  <outline>
    <contour>
      <point x="554" y="689" type="curve" smooth="yes"/>
      <point x="554" y="747"/>
      <point x="516" y="780"/>
      <point x="449" y="780" type="curve" smooth="yes"/>
      <point x="384" y="780"/>
      <point x="347" y="747"/>
      <point x="347" y="689" type="curve" smooth="yes"/>
      <point x="347" y="631"/>
      <point x="384" y="598"/>
      <point x="449" y="598" type="curve" smooth="yes"/>
      <point x="516" y="598"/>
      <point x="554" y="631"/>
    </contour>
    <contour>
      <point x="317" y="689" type="curve" smooth="yes"/>
      <point x="317" y="747"/>
      <point x="279" y="780"/>
      <point x="212" y="780" type="curve" smooth="yes"/>
      <point x="147" y="780"/>
      <point x="110" y="747"/>
      <point x="110" y="689" type="curve" smooth="yes"/>
      <point x="110" y="631"/>
      <point x="147" y="598"/>
      <point x="212" y="598" type="curve" smooth="yes"/>
      <point x="279" y="598"/>
      <point x="317" y="631"/>
    </contour>
    <contour>
      <point x="393" y="560" type="line"/>
      <point x="393" y="235" type="line" smooth="yes"/>
      <point x="393" y="185"/>
      <point x="375" y="162"/>
      <point x="332" y="162" type="curve" smooth="yes"/>
      <point x="289" y="162"/>
      <point x="271" y="185"/>
      <point x="271" y="235" type="curve" smooth="yes"/>
      <point x="271" y="560" type="line"/>
      <point x="41" y="560" type="line"/>
      <point x="41" y="248" type="line" smooth="yes"/>
      <point x="41" y="82"/>
      <point x="131" y="-8"/>
      <point x="332" y="-8" type="curve" smooth="yes"/>
      <point x="532" y="-8"/>
      <point x="622" y="82"/>
      <point x="622" y="248" type="curve" smooth="yes"/>
      <point x="622" y="560" type="line"/>
    </contour>
  </outline>
</glyph>
<glyph name="uni0123.ss01" format="2">
  <advance width="627"/>
  <anchor x="325" y="500" name="top"/>
  <anchor x="418" y="-200" name="ogonek"/>
  <anchor x="314" y="-210" name="bottom"/>
  <anchor x="298" y="-210" name="bottomC"/>
  <outline>
    <contour>
      <point x="309" y="768" type="line"/>
      <point x="238" y="547" type="line"/>
      <point x="416" y="547" type="line"/>
      <point x="448" y="768" type="line"/>
    </contour>
    <component base="g.ss01"/>
  </outline>
</glyph>
<glyph name="uni0162.swsh" format="2">
  <advance width="845"/>
  <anchor x="485" y="0" name="bottom"/>
  <anchor x="502" y="660" name="top"/>
  <anchor x="619" y="0" name="ogonek"/>
  <anchor x="501" y="338" name="center"/>
  <anchor x="532" y="0" name="bottomC"/>
  <outline>
    <contour>
      <point x="531" y="-51" type="curve" smooth="yes"/>
      <point x="531" y="-87"/>
      <point x="504" y="-101"/>
      <point x="475" y="-101" type="curve" smooth="yes"/>
      <point x="440" y="-101"/>
      <point x="424" y="-89"/>
      <point x="409" y="-70" type="curve"/>
      <point x="353" y="-170" type="line"/>
      <point x="377" y="-193"/>
      <point x="419" y="-215"/>
      <point x="492" y="-215" type="curve" smooth="yes"/>
      <point x="580" y="-215"/>
      <point x="653" y="-184"/>
      <point x="653" y="-83" type="curve" smooth="yes"/>
      <point x="653" y="3"/>
      <point x="593" y="46"/>
      <point x="467" y="48" type="curve"/>
      <point x="457" y="0" type="line"/>
      <point x="503" y="0"/>
      <point x="531" y="-18"/>
    </contour>
    <component base="T.swsh"/>
  </outline>
</glyph>
<glyph name="uni0163.swsh" format="2">
  <advance width="623"/>
  <anchor x="156" y="250" name="center"/>
  <anchor x="284" y="0" name="bottomC"/>
  <anchor x="193" y="730" name="top"/>
  <anchor x="251" y="0" name="bottom"/>
  <anchor x="367" y="767" name="topright"/>
  <anchor x="407" y="10" name="ogonek"/>
  <outline>
    <contour>
      <point x="317" y="-59" type="curve" smooth="yes"/>
      <point x="317" y="-89"/>
      <point x="296" y="-104"/>
      <point x="259" y="-104" type="curve" smooth="yes"/>
      <point x="228" y="-104"/>
      <point x="205" y="-92"/>
      <point x="190" y="-76" type="curve"/>
      <point x="144" y="-172" type="line"/>
      <point x="168" y="-195"/>
      <point x="205" y="-215"/>
      <point x="278" y="-215" type="curve" smooth="yes"/>
      <point x="366" y="-215"/>
      <point x="439" y="-184"/>
      <point x="439" y="-90" type="curve" smooth="yes"/>
      <point x="439" y="-19"/>
      <point x="372" y="25"/>
      <point x="253" y="52" type="curve"/>
      <point x="221" y="5" type="line"/>
      <point x="294" y="-8"/>
      <point x="317" y="-25"/>
    </contour>
    <component base="t.swsh"/>
  </outline>
</glyph>
<glyph name="uni20BA.tf" format="2">
  <advance width="604"/>
  <outline>
    <contour>
      <point x="391" y="297" type="line"/>
      <point x="391" y="216"/>
      <point x="365" y="163"/>
      <point x="300" y="163" type="curve" smooth="yes"/>
      <point x="158" y="163" type="line"/>
      <point x="158" y="0" type="line"/>
      <point x="325" y="0" type="line" smooth="yes"/>
      <point x="501" y="0"/>
      <point x="583" y="130"/>
      <point x="583" y="297" type="curve"/>
    </contour>
    <contour>
      <point x="75" y="660" type="line"/>
      <point x="75" y="0" type="line"/>
      <point x="298" y="0" type="line"/>
      <point x="298" y="660" type="line"/>
    </contour>
    <contour>
      <point x="-5" y="307" type="line"/>
      <point x="-5" y="242" type="line"/>
      <point x="449" y="367" type="line"/>
      <point x="449" y="432" type="line"/>
    </contour>
    <contour>
      <point x="-5" y="442" type="line"/>
      <point x="-5" y="377" type="line"/>
      <point x="449" y="502" type="line"/>
      <point x="449" y="566" type="line"/>
    </contour>
  </outline>
</glyph>
<glyph name="y.sc" format="2">
  <advance width="640"/>
  <anchor x="435" y="0" name="bottomC"/>
  <anchor x="320" y="560" name="top"/>
  <anchor x="435" y="0" name="ogonek"/>
  <anchor x="320" y="0" name="bottom"/>
  <outline>
    <contour>
      <point x="205" y="0" type="line"/>
      <point x="435" y="0" type="line"/>
      <point x="435" y="200" type="line"/>
      <point x="643" y="560" type="line"/>
      <point x="421" y="560" type="line"/>
      <point x="358" y="429" type="line"/>
      <point x="324" y="348" type="line"/>
      <point x="290" y="429" type="line"/>
      <point x="227" y="560" type="line"/>
      <point x="-3" y="560" type="line"/>
      <point x="205" y="200" type="line"/>
    </contour>
  </outline>
</glyph>
<glyph name="ydieresis.titl.sc" format="2">
  <advance width="640"/>
  <outline>
    <contour>
      <point x="542" y="689" type="curve" smooth="yes"/>
      <point x="542" y="747"/>
      <point x="504" y="780"/>
      <point x="437" y="780" type="curve" smooth="yes"/>
      <point x="372" y="780"/>
      <point x="335" y="747"/>
      <point x="335" y="689" type="curve" smooth="yes"/>
      <point x="335" y="631"/>
      <point x="372" y="598"/>
      <point x="437" y="598" type="curve" smooth="yes"/>
      <point x="504" y="598"/>
      <point x="542" y="631"/>
    </contour>
    <contour>
      <point x="305" y="689" type="curve" smooth="yes"/>
      <point x="305" y="747"/>
      <point x="267" y="780"/>
      <point x="200" y="780" type="curve" smooth="yes"/>
      <point x="135" y="780"/>
      <point x="98" y="747"/>
      <point x="98" y="689" type="curve" smooth="yes"/>
      <point x="98" y="631"/>
      <point x="135" y="598"/>
      <point x="200" y="598" type="curve" smooth="yes"/>
      <point x="267" y="598"/>
      <point x="305" y="631"/>
    </contour>
    <contour>
      <point x="421" y="560" type="line"/>
      <point x="358" y="429" type="line"/>
      <point x="324" y="348" type="line"/>
      <point x="290" y="429" type="line"/>
      <point x="227" y="560" type="line"/>
      <point x="-3" y="560" type="line"/>
      <point x="205" y="200" type="line"/>
      <point x="205" y="0" type="line"/>
      <point x="435" y="0" type="line"/>
      <point x="435" y="200" type="line"/>
      <point x="643" y="560" type="line"/>
    </contour>
  </outline>
</glyph>
<glyph name="zero.sc" format="2">
  <advance width="610"/>
  <outline>
    <contour>
      <point x="30" y="280" type="curve" smooth="yes"/>
      <point x="30" y="94"/>
      <point x="127" y="-8"/>
      <point x="305" y="-8" type="curve" smooth="yes"/>
      <point x="483" y="-8"/>
      <point x="580" y="94"/>
      <point x="580" y="280" type="curve" smooth="yes"/>
      <point x="580" y="466"/>
      <point x="483" y="568"/>
      <point x="305" y="568" type="curve" smooth="yes"/>
      <point x="127" y="568"/>
      <point x="30" y="466"/>
    </contour>
    <contour>
      <point x="355" y="280" type="curve" smooth="yes"/>
      <point x="355" y="186"/>
      <point x="345" y="162"/>
      <point x="305" y="162" type="curve" smooth="yes"/>
      <point x="265" y="162"/>
      <point x="255" y="186"/>
      <point x="255" y="280" type="curve" smooth="yes"/>
      <point x="255" y="374"/>
      <point x="265" y="398"/>
      <point x="305" y="398" type="curve" smooth="yes"/>
      <point x="345" y="398"/>
      <point x="355" y="374"/>
    </contour>
  </outline>
</glyph>
<glyph name="zero.tf.zero" format="2">
  <advance width="604"/>
  <outline>
    <contour>
      <point x="452" y="578" type="line"/>
      <point x="370" y="620" type="line"/>
      <point x="152" y="76" type="line"/>
      <point x="239" y="41" type="line"/>
    </contour>
    <component base="zero.tf"/>
  </outline>
</glyph>
<glyph name="zero.tosf" format="2">
  <advance width="604"/>
  <outline>
    <contour>
      <point x="24" y="280" type="curve" smooth="yes"/>
      <point x="24" y="86"/>
      <point x="114" y="-10"/>
      <point x="302" y="-10" type="curve" smooth="yes"/>
      <point x="490" y="-10"/>
      <point x="580" y="86"/>
      <point x="580" y="280" type="curve" smooth="yes"/>
      <point x="580" y="474"/>
      <point x="490" y="570"/>
      <point x="302" y="570" type="curve" smooth="yes"/>
      <point x="114" y="570"/>
      <point x="24" y="474"/>
    </contour>
    <contour>
      <point x="355" y="280" type="curve" smooth="yes"/>
      <point x="355" y="178"/>
      <point x="342" y="144"/>
      <point x="302" y="144" type="curve" smooth="yes"/>
      <point x="262" y="144"/>
      <point x="249" y="178"/>
      <point x="249" y="280" type="curve" smooth="yes"/>
      <point x="249" y="382"/>
      <point x="262" y="416"/>
      <point x="302" y="416" type="curve" smooth="yes"/>
      <point x="342" y="416"/>
      <point x="355" y="382"/>
    </contour>
  </outline>
</glyph>
<glyph name="zero.tosf.zero" format="2">
  <advance width="604"/>
  <outline>
    <contour>
      <point x="451" y="474" type="line"/>
      <point x="364" y="516" type="line"/>
      <point x="154" y="80" type="line"/>
      <point x="245" y="45" type="line"/>
    </contour>
    <component base="zero.tosf"/>
  </outline>
</glyph>
